<?xml version="1.0" encoding="UTF-8" standalone="no"?>
<svg width="30px" height="30px" viewBox="0 0 30 30" version="1.1" xmlns="http://www.w3.org/2000/svg" xmlns:xlink="http://www.w3.org/1999/xlink" xmlns:sketch="http://www.bohemiancoding.com/sketch/ns">
    <!-- Generator: Sketch 3.3.2 (12043) - http://www.bohemiancoding.com/sketch -->
    <title>bookmark copy 2</title>
    <desc>Created with Sketch.</desc>
    <defs></defs>
    <g id="Page-1" stroke="none" stroke-width="1" fill="none" fill-rule="evenodd" sketch:type="MSPage">
        <g id="Artboard-1" sketch:type="MSArtboardGroup" transform="translate(-599.000000, -360.000000)" fill="#000000">
            <g id="bookmark-copy-2" sketch:type="MSLayerGroup" transform="translate(599.000000, 360.000000)">
                <path d="M7.50000294,2.19806502 L7.50000294,2.73254392 L7.50000294,19.698065 L7.50000294,20.7627746 L8.31931572,20.0828238 L15.3193157,14.2734977 L14.6806902,14.2734977 L21.6806902,20.0828238 L22.5000029,20.7627746 L22.5000029,19.698065 L22.5000029,2.73254392 L22.5000029,2.19806502 L15.0000029,0.327880865 L8.31931575,1.89160154 L7.50000294,2.19806502 Z" id="Shape" sketch:type="MSShapeGroup"></path>
                <path d="M15,29 L15,29 C22.7319865,29 29,22.7319865 29,15 C29,7.2680135 22.7319865,1 15,1 C7.2680135,1 1,7.2680135 1,15 C1,22.7319865 7.2680135,29 15,29 L15,29 Z M15,30 L15,30 C6.71572875,30 0,23.2842712 0,15 C0,6.71572875 6.71572875,0 15,0 C23.2842712,0 30,6.71572875 30,15 C30,23.2842712 23.2842712,30 15,30 L15,30 Z" id="Shape" sketch:type="MSShapeGroup"></path>
            </g>
        </g>
    </g>
</svg>