<?xml version="1.0" encoding="utf-8"?>
<!-- Generator: Adobe Illustrator 16.0.4, SVG Export Plug-In . SVG Version: 6.00 Build 0)  -->
<!DOCTYPE svg PUBLIC "-//W3C//DTD SVG 1.1//EN" "http://www.w3.org/Graphics/SVG/1.1/DTD/svg11.dtd">
<svg version="1.1" id="Layer_1" xmlns="http://www.w3.org/2000/svg" xmlns:xlink="http://www.w3.org/1999/xlink" x="0px" y="0px"
	 width="412px" height="412px" viewBox="0 0 412 412" enable-background="new 0 0 412 412" xml:space="preserve">

<g id="check_mark">
	<path id="check-mark-4-icon" d="M412,206c0,113.771-92.229,206-206,206C92.229,412,0,319.771,0,206C0,92.229,92.229,0,206,0
		C319.771,0,412,92.229,412,206z M372,206c0-91.755-74.258-166-166-166c-91.755,0-166,74.259-166,166c0,91.755,74.258,166,166,166
		C297.755,372,372,297.741,372,206z M288.225,117.637L172.107,233.753l-50.295-50.31l-37.296,37.303l87.593,87.617l153.428-153.438
		L288.225,117.637z"/>
</g>

</svg>
