<?xml version="1.0" encoding="utf-8"?>
<!-- Generator: Adobe Illustrator 18.1.1, SVG Export Plug-In . SVG Version: 6.00 Build 0)  -->
<svg version="1.1" id="Layer_1" xmlns="http://www.w3.org/2000/svg" xmlns:xlink="http://www.w3.org/1999/xlink" x="0px" y="0px"
	 viewBox="-243 245 412 412" enable-background="new -243 245 412 412" xml:space="preserve">
<path id="check-mark-4-icon" d="M169,451c0,113.8-92.2,206-206,206s-206-92.2-206-206s92.2-206,206-206S169,337.2,169,451z M129,451
	c0-91.8-74.3-166-166-166c-91.8,0-166,74.3-166,166c0,91.8,74.3,166,166,166C54.8,617,129,542.7,129,451z"/>
<polygon points="58.3,392.8 21.2,355.7 -37,413.9 -95.2,355.7 -132.3,392.8 -74.1,451 -132.3,509.2 -95.2,546.3 -37,488.1 
	21.2,546.3 58.3,509.2 0.1,451 "/>
</svg>
