<?xml version="1.0" encoding="UTF-8" standalone="no"?>
<svg width="31px" height="31px" viewBox="0 0 31 31" version="1.1" xmlns="http://www.w3.org/2000/svg" xmlns:xlink="http://www.w3.org/1999/xlink" xmlns:sketch="http://www.bohemiancoding.com/sketch/ns">
    <!-- Generator: Sketch 3.3.2 (12043) - http://www.bohemiancoding.com/sketch -->
    <title>plus copy 2</title>
    <desc>Created with Sketch.</desc>
    <defs></defs>
    <g id="NEXT-header" stroke="none" stroke-width="1" fill="none" fill-rule="evenodd" sketch:type="MSPage">
        <g id="1440-full-colour-cards" sketch:type="MSArtboardGroup" transform="translate(-1143.000000, -1837.000000)" fill="#000000">
            <g id="flexi-pod-2" sketch:type="MSLayerGroup" transform="translate(90.000000, 1837.000000)">
                <g id="+-button" transform="translate(884.000000, 0.000000)" sketch:type="MSShapeGroup">
                    <g id="plus-copy-2" transform="translate(169.000000, 0.000000)">
                        <path d="M15.516129,30.452397 C23.765202,30.452397 30.452397,23.765202 30.452397,15.516129 C30.452397,7.26705604 23.765202,0.579861111 15.516129,0.579861111 C7.26705604,0.579861111 0.579861111,7.26705604 0.579861111,15.516129 C0.579861111,23.765202 7.26705604,30.452397 15.516129,30.452397 L15.516129,30.452397 Z M15.516129,29.6121192 C7.73112864,29.6121192 1.42013889,23.3011294 1.42013889,15.516129 C1.42013889,7.73112864 7.73112864,1.42013889 15.516129,1.42013889 C23.3011294,1.42013889 29.6121192,7.73112864 29.6121192,15.516129 C29.6121192,23.3011294 23.3011294,29.6121192 15.516129,29.6121192 L15.516129,29.6121192 Z" id="Shape"></path>
                        <path d="M12.2943608,11.0550897 L18.9805394,15.7245589 L18.9790844,14.9057222 L12.2929058,19.6106312 L12.8683845,20.4284479 L19.5545631,15.7235389 L20.1378652,15.3130827 L19.553108,14.9047021 L12.8669295,10.2352329 L12.2943608,11.0550897 L12.2943608,11.0550897 Z" id="Shape"></path>
                    </g>
                </g>
            </g>
        </g>
    </g>
</svg>