<?xml version="1.0" encoding="utf-8"?>
<!-- Generator: Adobe Illustrator 16.0.4, SVG Export Plug-In . SVG Version: 6.00 Build 0)  -->
<!DOCTYPE svg PUBLIC "-//W3C//DTD SVG 1.1//EN" "http://www.w3.org/Graphics/SVG/1.1/DTD/svg11.dtd">
<svg version="1.1" id="Layer_1" xmlns="http://www.w3.org/2000/svg" xmlns:xlink="http://www.w3.org/1999/xlink" x="0px" y="0px"
	 width="100px" height="100px" viewBox="0 0 100 100" enable-background="new 0 0 100 100" xml:space="preserve">
<path d="M73.557,11.002H26.873c-2.938,0-5.312,2.384-5.312,5.32v67.692c0,2.939,2.374,5.322,5.312,5.322h46.684
	c2.938,0,5.312-2.383,5.312-5.322V16.322C78.868,13.386,76.494,11.002,73.557,11.002z M50.22,85.275
	c-1.756,0-3.161-1.418-3.161-3.164c0-1.741,1.405-3.162,3.161-3.162c1.746,0,3.151,1.421,3.151,3.162
	C53.371,83.857,51.966,85.275,50.22,85.275z M70.381,75.145H30.047V20.502h40.333V75.145z"/>
<path d="M66.834,39.694c0,0.812-0.658,1.47-1.469,1.47H34.887c-0.811,0-1.469-0.657-1.469-1.47V25.712
	c0-0.811,0.658-1.469,1.469-1.469h30.478c0.811,0,1.469,0.658,1.469,1.469V39.694z"/>
<path d="M66.782,46.221c0,0.325-0.264,0.588-0.587,0.588H33.954c-0.324,0-0.587-0.263-0.587-0.588v-0.273
	c0-0.324,0.263-0.587,0.587-0.587h32.241c0.323,0,0.587,0.263,0.587,0.587V46.221z"/>
<path d="M66.782,50.988c0,0.324-0.264,0.587-0.587,0.587H33.954c-0.324,0-0.587-0.263-0.587-0.587v-0.273
	c0-0.326,0.263-0.588,0.587-0.588h32.241c0.323,0,0.587,0.263,0.587,0.588V50.988z"/>
<path d="M59.528,55.754c0,0.323-0.264,0.588-0.587,0.588H33.954c-0.324,0-0.587-0.265-0.587-0.588v-0.274
	c0-0.325,0.263-0.588,0.587-0.588h24.987c0.323,0,0.587,0.263,0.587,0.588V55.754z"/>
<path d="M66.782,60.83c0,0.324-0.264,0.588-0.587,0.588H33.954c-0.324,0-0.587-0.264-0.587-0.588v-0.273
	c0-0.324,0.263-0.588,0.587-0.588h32.241c0.323,0,0.587,0.264,0.587,0.588V60.83z"/>
<path d="M66.782,65.596c0,0.325-0.264,0.589-0.587,0.589H33.954c-0.324,0-0.587-0.264-0.587-0.589v-0.273
	c0-0.324,0.263-0.587,0.587-0.587h32.241c0.323,0,0.587,0.263,0.587,0.587V65.596z"/>
<path d="M59.528,70.363c0,0.324-0.264,0.587-0.587,0.587H33.954c-0.324,0-0.587-0.263-0.587-0.587V70.09
	c0-0.325,0.263-0.588,0.587-0.588h24.987c0.323,0,0.587,0.263,0.587,0.588V70.363z"/>
</svg>
