<?xml version="1.0" encoding="utf-8"?>
<!-- Generator: Adobe Illustrator 16.0.4, SVG Export Plug-In . SVG Version: 6.00 Build 0)  -->
<!DOCTYPE svg PUBLIC "-//W3C//DTD SVG 1.1//EN" "http://www.w3.org/Graphics/SVG/1.1/DTD/svg11.dtd">
<svg version="1.1" id="Layer_1" xmlns="http://www.w3.org/2000/svg" xmlns:xlink="http://www.w3.org/1999/xlink" x="0px" y="0px"
	 width="412px" height="412px" viewBox="0 0 412 412" enable-background="new 0 0 412 412" xml:space="preserve">
<path d="M206,0C92.237,0,0,92.239,0,206c0,113.789,92.237,206,206,206c113.762,0,206-92.211,206-206C412,92.239,319.762,0,206,0z
	 M206.025,319.408c-15.725,0-28.487-12.762-28.487-28.461c0-15.729,12.765-28.461,28.487-28.461
	c15.73,0,28.436,12.733,28.436,28.461C234.461,306.646,221.755,319.408,206.025,319.408z M206.025,234.953
	c-15.725,0-28.487-12.733-28.487-28.436c0-15.728,12.765-28.485,28.487-28.485c15.73-0.002,28.436,12.758,28.436,28.485
	C234.461,222.218,221.755,234.953,206.025,234.953z M206.025,149.487c-15.725,0-28.487-12.734-28.487-28.461
	c0-15.726,12.765-28.433,28.487-28.433c15.73,0,28.436,12.707,28.436,28.433C234.461,136.753,221.755,149.487,206.025,149.487z"/>
</svg>
