<?xml version="1.0" encoding="utf-8"?>
<svg version="1.1" id="Layer_1" xmlns="http://www.w3.org/2000/svg" xmlns:xlink="http://www.w3.org/1999/xlink" x="0px" y="0px"
	 viewBox="0 0 800 372.1" enable-background="new 0 0 800 372.1" xml:space="preserve">
<g opacity="0.6">
	<path d="M225.8,239.7h7.8c-5.2,12.1-12.1,21.6-20.8,29.4c-8.7,7.8-17.3,12.1-25.1,12.1c-5.2,0-10.4-1.7-14.7-6.1
		c-4.3-4.3-6.1-9.5-6.1-16.4c0-6.1,3.5-19,9.5-36.3l18.2-51.9c5.2-15.6,7.8-25.1,7.8-28.6c0-4.3-0.9-6.9-2.6-9.5
		c-1.7-2.6-4.3-3.5-7.8-3.5c-11.2,0-23.4,8.7-38.1,26.8c-14.7,18.2-30.3,53.6-45.9,106.4l-5.2,16.4H79.6l31.1-101.2
		c5.2-17.3,7.8-29.4,7.8-35.5c0-3.5-0.9-6.9-2.6-8.7c-0.9-2.6-3.5-3.5-6.1-3.5c-8.7,0-20.8,9.5-35.5,27.7
		c-15.6,18.2-30.3,52.8-45,102.1l-6.1,18.2H0.9l34.6-113.3c4.3-15.6,6.9-25.1,6.9-27.7c0-1.7,0-3.5-0.9-4.3s-1.7-1.7-3.5-1.7
		c-3.5,0-7.8,2.6-13,7.8c-5.2,5.2-11.2,13-16.4,22.5H0c6.1-12.1,13.8-22.5,22.5-31.1c8.7-8.7,16.4-12.1,23.4-12.1
		c5.2,0,8.7,1.7,11.2,5.2c2.6,3.5,4.3,7.8,4.3,13c0,9.5-3.5,25.1-11.2,46.7c8.7-18.2,19-32.9,32-45.9s24.2-19,34.6-19
		c6.9,0,13,1.7,16.4,6.1c3.5,4.3,5.2,10.4,5.2,19c0,10.4-2.6,22.5-7.8,37.2c10.4-21.6,22.5-38.1,33.7-47.6
		c12.1-10.4,22.5-14.7,32.9-14.7c6.9,0,13.8,2.6,18.2,6.9c5.2,5.2,7.8,11.2,7.8,19.9c0,5.2,0,9.5-0.9,13c-0.9,3.5-3.5,13-9.5,28.6
		l-14.7,42.4c-6.1,17.3-9.5,27.7-9.5,32c0,2.6,0.9,5.2,1.7,6.1c0.9,1.7,2.6,2.6,5.2,2.6c4.3,0,9.5-2.6,14.7-7.8
		C214.6,257,220.6,249.2,225.8,239.7z"/>
	<path d="M263,166.1h-7.8c1.7-18.2,5.2-31.1,12.1-38.9c6.1-7.8,13-12.1,20.8-12.1c9.5,0,16.4,6.1,22.5,17.3
		c5.2,11.2,8.7,28.6,8.7,51.9c0,30.3-3.5,58-10.4,83.9c12.1-13.8,24.2-30.3,36.3-51.9c12.1-20.8,17.3-38.9,17.3-52.8
		c0-6.9-1.7-13.8-6.1-20.8c-4.3-6.9-6.1-12.1-6.1-15.6c0-3.5,0.9-6.1,2.6-8.7s4.3-3.5,6.9-3.5c4.3,0,8.7,2.6,11.2,7.8
		c2.6,5.2,4.3,13,4.3,22.5c0,15.6-4.3,33.7-13.8,55.4S339.2,244,321,265.6c-18.2,21.6-35.5,40.7-53.6,58
		c-17.3,17.3-32.9,29.4-45.9,36.3s-25.1,10.4-38.1,10.4c-16.4,0-24.2-4.3-24.2-13.8c0-3.5,1.7-6.9,5.2-8.7c3.5-2.6,6.9-3.5,10.4-3.5
		c2.6,0,7.8,0.9,13.8,2.6c7.8,2.6,14.7,3.5,19.9,3.5c7.8,0,14.7-1.7,22.5-6.1c6.9-4.3,16.4-11.2,26.8-21.6
		c10.4-10.4,18.2-19.9,22.5-27.7c4.3-7.8,7.8-22.5,11.2-42.4c3.5-19.9,5.2-41.5,5.2-64.9c0-17.3-1.7-31.1-5.2-40.7
		c-3.5-9.5-6.9-14.7-12.1-14.7C270.8,130.7,265.6,142.8,263,166.1z"/>
</g>
<path d="M415.3,278.6V0h177.4v51H472.4V122h99.1v50.2h-99.1v106.4H415.3z"/>
<path d="M611.1,0h190.3v51h-66.2v227.6h-58.8V51h-65.3V0z"/>
</svg>
