<?xml version="1.0" encoding="utf-8"?>
<!-- Generator: Adobe Illustrator 18.1.1, SVG Export Plug-In . SVG Version: 6.00 Build 0)  -->
<svg version="1.1" id="Layer_1" xmlns="http://www.w3.org/2000/svg" xmlns:xlink="http://www.w3.org/1999/xlink" x="0px" y="0px"
	 viewBox="0 0 800 375.1" enable-background="new 0 0 800 375.1" xml:space="preserve">
<g opacity="0.78">
	<path d="M198.5,133.7c2.8,0,3.8,0.7,4.5,1.7c1.2,1.9,1.9,3.7,1.9,7.3c0,1.7-1,7.5-7.6,27.3l-18.2,51.9c-6.5,18.6-9.7,31.3-9.7,37.6
		c0,8.2,2.3,14.3,7.2,19.2c4.7,4.8,10.7,7.3,17.6,7.3c8.7,0,18.1-4.4,27.8-13.1c9.4-8.4,16.5-18.5,21.8-30.8l2.4-5.6h-16.2l-1.1,2.1
		c-4.4,8.1-10,15.9-14.9,20.8c-4.2,4.2-8.5,6.6-11.9,6.6c-0.9,0-1.5-0.2-1.7-0.5l-0.2-0.4l-0.2-0.3c-0.2-0.4-0.8-1.9-0.8-3.5
		c0-4,4.6-17.4,9.3-30.7l14.7-42.3c5.7-14.8,8.5-24.6,9.6-29c1-4,1-8.6,1-14c0-9.5-2.8-16.5-9-22.8c-5.2-5-13-8-21-8
		c-11.8,0-23.1,5-35.5,15.6c-6.7,5.7-13.5,13.5-20,23.1c0.4-3.4,0.6-6.5,0.6-9.6c0-9.4-2-16.5-6-21.4c-3.9-5-10.6-7.7-19.6-7.7
		c-11.6,0-23.9,6.6-37.4,20.2c-5.9,5.9-11.3,12.2-16.1,18.8c1.4-6.6,2.2-12.3,2.2-16.8c0-5.7-1.7-10.8-5-15.3
		c-3.3-4.6-8.1-6.9-14.5-6.9c-8.7,0-17.3,4.3-26.2,13.3c-9.3,9.2-17.2,20-23.3,32.1L0,165.7h17.5l1.1-2.1c4.6-8.4,10.2-16,15.7-21.6
		c5.8-5.8,8.8-6.6,10.2-6.6c0,0,0.1,0,0,0c0.1,0,0.2,0.1,0.3,0.3c0,0.4,0,0.9,0,1.8c0,2.1-3.3,14-6.7,26.5L2,282.4h30.6l7.1-21.1
		c15.1-50.6,29.6-83.6,44.3-100.7c18.4-22.8,28.2-26.2,32.4-26.2c0.6,0,2.1,0.1,2.3,0.8l0.3,0.8l0.6,0.6c0.7,0.8,1.5,3.1,1.5,6
		c0,5.8-2.7,18-7.6,34.3L80.7,283.3h31.5l6.1-19.3c15.2-51.4,30.4-86.7,45.2-105C177.5,141.7,188.7,133.7,198.5,133.7z"/>
	<path d="M381.1,121.8c-3-6.3-8.6-10.1-14.8-10.1c-4.4,0-8,1.9-10.2,5.3c-2.2,3.4-3.3,6.8-3.3,10.9c0,4.6,2.3,10.6,6.7,17.7
		c3.7,5.9,5.5,12,5.5,18.7c0,10-2.9,27-16.8,50.8c-7.8,13.9-16,26.5-25,38c4.4-21.5,6.6-43.9,6.6-68.1c0-22.3-3.1-40.8-9.1-53.6
		l-0.1-0.2c-7.2-13.2-15.5-19.4-26-19.4c-8.8,0-16.8,4.6-23.9,13.5c-7.1,8.1-11.1,20.8-13,41.1l-0.4,4.4h15.8l0.4-3.6
		c3.1-28.2,9.2-30.4,10.9-30.4c0.2,0,0.5,0,0.7,0.1l0.7,0.1c2.7,0,5.3,3.7,8.3,12.1c3.3,9,5,22.3,5,39.3c0,23.2-1.7,44.8-5.1,64.2
		c-3.7,21.4-7.1,34.5-10.8,41.1c-4,7.3-11.5,16.5-21.8,26.8c-10.5,10.5-19.9,17.2-25.9,20.9c-6.9,3.9-13.1,5.6-20.5,5.6
		c-4,0-10.5-0.6-18.8-3.3c-6.1-1.7-11.6-2.8-14.9-2.8c-4.6,0-8.7,1.3-12.5,4.1c-4.4,2.4-7.1,6.9-7.1,12.1c0,6.2,2.8,11,8,13.9
		c4.6,2.6,11.2,3.9,20.2,3.9c13.3,0,26-3.5,40-10.9c13.7-7.3,29.9-20.1,46.8-36.9c16.7-15.9,33.8-34.5,53.9-58.3
		c17.1-20.3,30.6-41.9,41.1-66c9.5-21.7,14.1-40.4,14.1-57C385.8,136.4,384.1,127.8,381.1,121.8z"/>
</g>
<path d="M415.3,278.6V0h177.4v51H472.4v71h99.1v50.2h-99.1v106.4H415.3z"/>
<path d="M611.1,0h190.3v51h-66.2v227.6h-58.8V51h-65.3V0z"/>
</svg>
