<?xml version="1.0" encoding="utf-8"?>
<!-- Generator: Adobe Illustrator 16.0.4, SVG Export Plug-In . SVG Version: 6.00 Build 0)  -->
<!DOCTYPE svg PUBLIC "-//W3C//DTD SVG 1.1//EN" "http://www.w3.org/Graphics/SVG/1.1/DTD/svg11.dtd">
<svg version="1.1" id="Layer_1" xmlns="http://www.w3.org/2000/svg" xmlns:xlink="http://www.w3.org/1999/xlink" x="0px" y="0px"
	 width="100px" height="100px" viewBox="0 0 100 100" enable-background="new 0 0 100 100" xml:space="preserve">
<g>
	<path d="M78.844,28.746v-9.548H12v52.531c0,0,0,9.547,9.547,9.547h59.685c0,0,7.17-0.154,7.17-9.547V28.746H78.844z M21.547,76.494
		c-4.767,0-4.767-4.765-4.767-4.765V23.98h57.294v47.749c0,2.188,0.677,3.719,1.608,4.765H21.547z M21.547,76.494"/>
	<rect x="21.547" y="33.528" width="47.749" height="4.768"/>
	<rect x="47.812" y="62.167" width="16.717" height="4.78"/>
	<rect x="47.812" y="52.62" width="21.484" height="4.782"/>
	<rect x="47.812" y="43.072" width="21.484" height="4.782"/>
	<rect x="21.547" y="43.072" width="21.483" height="23.875"/>
</g>
</svg>
