<?xml version="1.0" encoding="utf-8"?>
<!-- Generator: Adobe Illustrator 16.0.4, SVG Export Plug-In . SVG Version: 6.00 Build 0)  -->
<!DOCTYPE svg PUBLIC "-//W3C//DTD SVG 1.1//EN" "http://www.w3.org/Graphics/SVG/1.1/DTD/svg11.dtd">
<svg version="1.1" id="Layer_1" xmlns="http://www.w3.org/2000/svg" xmlns:xlink="http://www.w3.org/1999/xlink" x="0px" y="0px"
	 width="841.89px" height="595.28px" viewBox="0 0 841.89 595.28" enable-background="new 0 0 841.89 595.28" xml:space="preserve">
<path fill="#1E1E1C" d="M443.811,295.954l-0.04-0.02v-0.002l-0.003,0l-8.584-4.373l-3.178,1.649v-7.219l0.059-0.028l-11.315-5.763
	l-11.104,5.763l0,0v7.293l-2.962-1.508l-8.444,4.382l-0.022-0.01v0.021l0,0v0l-0.005,14.852l8.507,4.067v0.024l0.024-0.012
	l0.026,0.012v-0.024l8.507-4.067v-0.008l5.52,2.705v0.029l0.029-0.016l0.03,0.016v-0.029l5.869-2.877l8.494,4.061v0.023l0.023-0.012
	l0.026,0.012v-0.023l8.509-4.068l-0.007-14.831L443.811,295.954z M400.827,305.008l-2.091-1.025v-2.87l2.091,1.024V305.008z
	 M400.827,301.345l-2.091-1.024v-2.872l2.091,1.025V301.345z M403.411,313.066l-2.091-1.025v-5.617l2.091,1.025V313.066z
	 M403.411,306.351l-2.091-1.024v-2.871l2.091,1.025V306.351z M403.411,302.688l-2.091-1.025v-2.87l2.091,1.024V302.688z
	 M405.995,307.693l-2.09-1.024v-2.87l2.09,1.024V307.693z M405.995,304.031l-2.09-1.025v-2.871l2.09,1.025V304.031z
	 M409.583,306.669l-2.092,1.024v-2.87l2.092-1.024V306.669z M409.583,303.006l-2.092,1.025v-2.871l2.092-1.025V303.006z
	 M412.167,305.326l-2.091,1.024v-2.87l2.091-1.025V305.326z M412.167,301.662l-2.091,1.025v-2.871l2.091-1.024V301.662z
	 M412.329,294.622l-2.091-1.065v-2.711l2.091,1.025V294.622z M412.329,291.078l-2.091-1.025v-2.87l2.091,1.024V291.078z
	 M414.752,303.982l-2.091,1.025v-2.871l2.091-1.024V303.982z M414.752,300.32l-2.091,1.024v-2.871l2.091-1.025V300.32z
	 M414.913,295.938l-2.092-1.065v-2.684l2.092,1.025V295.938z M414.913,292.421l-2.092-1.025v-2.871l2.092,1.025V292.421z
	 M417.498,304.754l-2.091-1.026v-2.87l2.091,1.025V304.754z M417.498,301.09l-2.091-1.025v-2.87l2.091,1.025V301.09z
	 M417.498,297.427l-2.091-1.024v-2.871l2.091,1.025V297.427z M417.498,293.764l-2.091-1.025v-2.87l2.091,1.025V293.764z
	 M420.082,306.096l-2.091-1.024v-2.87l2.091,1.024V306.096z M420.082,302.434l-2.091-1.025v-2.871l2.091,1.025V302.434z
	 M420.082,298.77l-2.091-1.025v-2.871l2.091,1.025V298.77z M420.082,295.107l-2.091-1.025v-2.871l2.091,1.025V295.107z
	 M424.154,290.894l2.09-1.025v2.87l-2.09,1.025V290.894z M424.154,294.557l2.09-1.025v2.871l-2.09,1.024V294.557z M424.154,298.22
	l2.09-1.025v2.87l-2.09,1.025V298.22z M423.66,305.071l-2.091,1.024v-2.87l2.091-1.024V305.071z M423.66,301.408l-2.091,1.025
	v-2.871l2.091-1.025V301.408z M423.66,297.745l-2.091,1.025v-2.871l2.091-1.025V297.745z M423.66,294.083l-2.091,1.025v-2.871
	l2.091-1.025V294.083z M424.154,301.883l2.09-1.025v2.87l-2.09,1.026V301.883z M426.281,310.419l-2.091,1.024v-5.617l2.091-1.025
	V310.419z M429.322,288.207l2.092-1.024v2.87l-2.092,1.025V288.207z M426.738,289.551l2.092-1.025v2.871l-2.092,1.025V289.551z
	 M426.738,293.214l2.092-1.025v2.669l-2.092,1.084V293.214z M429.187,304.527l-2.091-1.025v-2.871l2.091,1.025V304.527z
	 M429.187,300.863l-2.091-1.025v-2.87l2.091,1.025V300.863z M429.322,291.87l2.092-1.025v2.67l-2.092,1.085V291.87z
	 M431.771,305.869l-2.092-1.024v-2.87l2.092,1.025V305.869z M431.771,302.207l-2.092-1.025v-2.87l2.092,1.024V302.207z
	 M434.355,307.213l-2.092-1.025v-2.87l2.092,1.024V307.213z M434.355,303.55l-2.092-1.025v-2.87l2.092,1.025V303.55z
	 M437.943,306.188l-2.092,1.025v-2.871l2.092-1.024V306.188z M437.943,302.524l-2.092,1.025v-2.87l2.092-1.025V302.524z
	 M440.528,311.561l-2.092,1.024v-5.618l2.092-1.023V311.561z M440.528,304.845l-2.092,1.024V303l2.092-1.025V304.845z
	 M440.528,301.182l-2.092,1.025v-2.871l2.092-1.024V301.182z M443.111,303.502l-2.09,1.025v-2.871l2.09-1.025V303.502z
	 M443.111,299.838l-2.09,1.025v-2.87l2.09-1.025V299.838z"/>
</svg>
