<?xml version="1.0" encoding="utf-8"?>
<!-- Generator: Adobe Illustrator 16.0.4, SVG Export Plug-In . SVG Version: 6.00 Build 0)  -->
<!DOCTYPE svg PUBLIC "-//W3C//DTD SVG 1.1//EN" "http://www.w3.org/Graphics/SVG/1.1/DTD/svg11.dtd">
<svg version="1.1" id="Layer_1" xmlns="http://www.w3.org/2000/svg" xmlns:xlink="http://www.w3.org/1999/xlink" x="0px" y="0px"
	 width="50px" height="50px" viewBox="0 0 50 50" enable-background="new 0 0 50 50" xml:space="preserve">
<path fill="#1E1E1C" d="M48.242,24.137l-0.039-0.021v-0.002h-0.004l-8.679-4.421l-3.213,1.667v-7.3l0.06-0.027L24.929,8.206
	l-11.225,5.828l0,0v7.373l-2.996-1.524l-8.536,4.43l-0.023-0.01v0.022l0,0l0,0L2.145,39.338l8.601,4.111v0.023l0.024-0.012
	l0.025,0.012v-0.023l8.601-4.111V39.33l5.58,2.734v0.03l0.03-0.019l0.029,0.019v-0.03l5.934-2.908l8.588,4.105v0.023l0.021-0.012
	l0.027,0.012v-0.023l8.602-4.111l-0.006-14.995L48.242,24.137z M4.788,33.29l-2.114-1.037v-2.9l2.114,1.035V33.29z M4.788,29.588
	l-2.114-1.037v-2.901l2.114,1.036V29.588z M7.4,41.437L5.286,40.4v-5.677L7.4,35.758V41.437z M7.4,34.648l-2.114-1.037v-2.902
	L7.4,31.746V34.648z M7.4,30.944l-2.114-1.037v-2.898L7.4,28.042V30.944z M10.012,36.005l-2.114-1.034v-2.901l2.114,1.033V36.005z
	 M10.012,32.303l-2.114-1.035v-2.902l2.114,1.035V32.303z M13.639,34.971l-2.115,1.032v-2.9l2.115-1.035V34.971z M13.639,31.266
	l-2.115,1.035v-2.902l2.115-1.035V31.266z M16.251,33.609l-2.114,1.037v-2.902l2.114-1.037V33.609z M16.251,29.905l-2.114,1.037
	V28.04l2.114-1.033V29.905z M16.416,22.791l-2.114-1.077v-2.741l2.114,1.037V22.791z M16.416,19.208l-2.114-1.037v-2.9l2.114,1.034
	V19.208z M18.865,32.253l-2.114,1.037v-2.902l2.114-1.037V32.253z M18.865,28.551l-2.114,1.035v-2.902l2.114-1.037V28.551z
	 M19.028,24.12l-2.116-1.075v-2.714l2.116,1.036V24.12z M19.028,20.565l-2.116-1.036v-2.902l2.116,1.036V20.565z M21.641,33.033
	l-2.115-1.036v-2.903l2.115,1.037V33.033z M21.641,29.329l-2.115-1.037v-2.9l2.115,1.037V29.329z M21.641,25.627l-2.115-1.037
	v-2.901l2.115,1.035V25.627z M21.641,21.922l-2.115-1.037v-2.899l2.115,1.036V21.922z M24.253,34.39l-2.114-1.034v-2.903
	l2.114,1.037V34.39z M24.253,30.688L22.14,29.65v-2.902l2.114,1.037V30.688z M24.253,26.983l-2.114-1.035v-2.902l2.114,1.035V26.983
	z M24.253,23.281l-2.114-1.036v-2.902l2.114,1.036V23.281z M28.37,19.022l2.113-1.036v2.899l-2.113,1.037V19.022z M28.37,22.724
	l2.113-1.035v2.901l-2.113,1.037V22.724z M28.37,26.429l2.113-1.037v2.9l-2.113,1.037V26.429z M27.871,33.354l-2.115,1.036v-2.902
	l2.115-1.035V33.354z M27.871,29.648l-2.115,1.037v-2.902l2.115-1.037V29.648z M27.871,25.947l-2.115,1.036v-2.903l2.115-1.036
	V25.947z M27.871,22.245l-2.115,1.036v-2.902l2.115-1.036V22.245z M28.37,30.131l2.113-1.037v2.903l-2.113,1.036V30.131z
	 M30.521,38.762l-2.114,1.032v-5.679l2.114-1.034V38.762z M33.595,16.305l2.115-1.034v2.9l-2.115,1.037V16.305z M30.982,17.664
	l2.115-1.037v2.902l-2.115,1.037V17.664z M30.982,21.367l2.115-1.036v2.697l-2.115,1.096V21.367z M33.459,32.805l-2.115-1.035
	v-2.902l2.115,1.034V32.805z M33.459,29.1l-2.115-1.034v-2.903l2.115,1.037V29.1z M33.595,20.008l2.115-1.036v2.699l-2.115,1.096
	V20.008z M36.071,34.159l-2.115-1.033v-2.902l2.115,1.034V34.159z M36.071,30.456l-2.115-1.034v-2.9l2.115,1.034V30.456z
	 M38.684,35.52l-2.115-1.037v-2.9l2.115,1.034V35.52z M38.684,31.817l-2.115-1.037v-2.902l2.115,1.036V31.817z M42.311,34.482
	l-2.114,1.037v-2.903l2.114-1.034V34.482z M42.311,30.778l-2.114,1.037v-2.901l2.114-1.036V30.778z M44.923,39.914l-2.114,1.037
	v-5.681l2.114-1.035V39.914z M44.923,33.126l-2.114,1.033V31.26l2.114-1.036V33.126z M44.923,29.422l-2.114,1.034v-2.9l2.114-1.034
	V29.422z M47.535,31.768l-2.112,1.034v-2.902l2.112-1.034V31.768z M47.535,28.063l-2.112,1.034v-2.899l2.112-1.036V28.063z"/>
</svg>
