<?xml version="1.0" encoding="utf-8"?>
<!-- Generated by IcoMoon.io -->
<!DOCTYPE svg PUBLIC "-//W3C//DTD SVG 1.1//EN" "http://www.w3.org/Graphics/SVG/1.1/DTD/svg11.dtd">
<svg version="1.1" xmlns="http://www.w3.org/2000/svg" xmlns:xlink="http://www.w3.org/1999/xlink" width="512" height="512" viewBox="0 0 512 512">
<g id="icomoon-ignore">
</g>
<path fill="rgb(74, 74, 74)" d="M424.846 206.773h-9.98v-46.694c0-86.355-68.532-158.498-154.189-160.038-2.337-0.041-7.017-0.041-9.352 0-85.66 1.541-154.189 73.683-154.189 160.038v46.694h-9.98c-15.372 0-27.915 15.865-27.915 35.459v234.185c0 19.569 12.543 35.583 27.915 35.583h337.69c15.372 0 27.914-16.014 27.914-35.583v-234.185c0-19.594-12.543-35.459-27.914-35.459v0zM287.637 359.086v70.762c0 8.105-6.784 14.957-14.895 14.957h-33.483c-8.11 0-14.895-6.852-14.895-14.957v-70.762c-7.863-7.745-12.446-18.449-12.446-30.288 0-22.44 17.346-41.726 39.405-42.615 2.337-0.098 7.016-0.098 9.352 0 22.061 0.889 39.405 20.175 39.405 42.615 0 11.839-4.581 22.543-12.445 30.288v0zM349.113 206.773h-186.223v-46.694c0-51.439 41.803-93.977 93.109-93.977 51.304 0 93.114 42.538 93.114 93.977v46.694z"></path>
</svg>