<?xml version="1.0" encoding="utf-8"?>
<!-- Generator: Adobe Illustrator 16.0.4, SVG Export Plug-In . SVG Version: 6.00 Build 0)  -->
<!DOCTYPE svg PUBLIC "-//W3C//DTD SVG 1.1//EN" "http://www.w3.org/Graphics/SVG/1.1/DTD/svg11.dtd">
<svg version="1.1" id="Layer_1" xmlns="http://www.w3.org/2000/svg" xmlns:xlink="http://www.w3.org/1999/xlink" x="0px" y="0px"
	 width="841.89px" height="595.28px" viewBox="0 0 841.89 595.28" enable-background="new 0 0 841.89 595.28" xml:space="preserve">
<path fill-rule="evenodd" clip-rule="evenodd" d="M413.076,278.791c-0.159,0.069-0.316,0.138-0.476,0.207
	c-0.009-0.014-0.019-0.027-0.029-0.042c0.106-0.102,0.204-0.216,0.319-0.306c0.617-0.476,1.288-0.827,2.081-0.903
	c0.075-0.007,0.185-0.093,0.203-0.163c0.108-0.375,0.307-0.694,0.611-0.924c0.415-0.315,0.857-0.596,1.288-0.891
	c0.021,0.025,0.04,0.051,0.061,0.077c-0.101,0.116-0.201,0.231-0.303,0.346c1.468-0.645,2.998-0.551,4.529-0.464
	c0,0.021,0.001,0.041,0.002,0.062c-0.346,0-0.693-0.014-1.038,0.003c-0.352,0.018-0.702,0.064-1.049,0.152
	c0.512,0.027,1.026,0.039,1.537,0.084c1.318,0.12,2.623,0.323,3.886,0.733c2.204,0.717,3.63,2.252,4.563,4.328
	c1.008,2.244,1.065,4.53,0.422,6.867c-0.022,0.08-0.042,0.161-0.068,0.256c0.052-0.002,0.085-0.002,0.117-0.006
	c0.557-0.069,0.933,0.32,0.848,0.879c-0.004,0.025-0.007,0.052-0.017,0.075c-0.466,1.021-0.544,2.141-0.826,3.209
	c-0.105,0.401-0.268,0.789-0.415,1.179c-0.055,0.142-0.135,0.276-0.217,0.405c-0.303,0.473-0.452,0.51-0.925,0.237
	c-0.088,0.366-0.145,0.739-0.268,1.088c-0.292,0.817-0.632,1.617-0.924,2.433c-0.274,0.766-0.255,1.554-0.084,2.341
	c0.013,0.055,0.072,0.116,0.126,0.143c0.566,0.274,1.018,0.691,1.401,1.174c0.514,0.65,1.158,1.05,1.937,1.345
	c2.683,1.021,5.343,2.104,8.009,3.162c0.562,0.225,1.117,0.465,1.684,0.678c0.637,0.236,1.14,0.642,1.553,1.167
	c0.853,1.083,1.326,2.341,1.6,3.669c0.138,0.671,0.204,1.368,0.203,2.053c-0.005,2.148-0.057,4.297-0.091,6.444
	c-0.002,0.05-0.01,0.1-0.015,0.167c-14.959,0-29.907,0-44.895,0c0-0.1-0.001-0.199,0-0.299c0.032-2.113,0.052-4.229,0.1-6.342
	c0.025-1.129,0.226-2.236,0.526-3.324c0.416-1.496,1.394-2.52,2.716-3.273c1.164-0.664,2.428-1.07,3.693-1.477
	c2.33-0.748,4.591-1.678,6.838-2.641c0.409-0.176,0.752-0.437,1.035-0.773c0.463-0.551,1.03-0.968,1.662-1.299
	c0.155-0.08,0.233-0.183,0.239-0.349c0.026-0.774,0.055-1.547,0.076-2.322c0.001-0.073-0.021-0.152-0.054-0.22
	c-0.251-0.55-0.543-1.084-0.752-1.649c-0.207-0.557-0.332-1.143-0.5-1.733c-0.366,0.201-0.63-0.018-0.791-0.299
	c-0.243-0.426-0.456-0.877-0.61-1.342c-0.228-0.685-0.394-1.387-0.702-2.049c-0.266-0.57-0.248-1.198-0.158-1.812
	c0.064-0.441,0.312-0.602,0.898-0.624c-0.742-2.442-1.107-4.901-0.344-7.466c-0.066,0.073-0.096,0.104-0.122,0.136
	c-0.025,0.031-0.046,0.064-0.091,0.083C412.075,280.1,412.429,279.385,413.076,278.791z"/>
</svg>
