<?xml version="1.0" encoding="iso-8859-1"?>
<!-- Generator: Adobe Illustrator 16.0.4, SVG Export Plug-In . SVG Version: 6.00 Build 0)  -->
<!DOCTYPE svg PUBLIC "-//W3C//DTD SVG 1.1//EN" "http://www.w3.org/Graphics/SVG/1.1/DTD/svg11.dtd">
<svg version="1.1" xmlns="http://www.w3.org/2000/svg" xmlns:xlink="http://www.w3.org/1999/xlink" x="0px" y="0px" width="37.86px"
	 height="38.293px" viewBox="0 0 37.86 38.293" style="enable-background:new 0 0 37.86 38.293;" xml:space="preserve">
<g id="section">
	<g>
		<rect y="0" style="fill:#1D1D1B;" width="30.458" height="9.422"/>
		<rect x="6.902" y="9.476" style="fill:none;stroke:#1D1D1B;stroke-miterlimit:10;" width="30.458" height="9.422"/>
		<rect x="6.902" y="18.924" style="fill:none;stroke:#1D1D1B;stroke-miterlimit:10;" width="30.458" height="9.422"/>
		<rect x="6.902" y="28.371" style="fill:none;stroke:#1D1D1B;stroke-miterlimit:10;" width="30.458" height="9.422"/>
	</g>
	<g>
		<path style="fill:#FFFFFF;" d="M2.522,5.507L3.141,5.14c0.206,0.407,0.577,0.633,1.006,0.633c0.376,0,0.647-0.141,0.647-0.427
			c0-0.281-0.268-0.401-0.753-0.537C3.377,4.622,2.685,4.453,2.685,3.673c0-0.693,0.542-1.109,1.34-1.109
			c0.764,0,1.215,0.367,1.478,0.763L4.934,3.759C4.737,3.443,4.38,3.231,4.019,3.231c-0.346,0-0.536,0.151-0.536,0.372
			c0,0.296,0.276,0.402,0.763,0.537c0.654,0.177,1.347,0.382,1.347,1.151c0,0.597-0.451,1.13-1.486,1.13
			C3.302,6.421,2.798,6.039,2.522,5.507z"/>
		<path style="fill:#FFFFFF;" d="M6.15,2.633h2.531v0.684H6.971v0.799H8.21v0.647H6.971v0.925h1.802v0.663H6.15V2.633z"/>
		<path style="fill:#FFFFFF;" d="M8.98,4.487c0-1.291,0.748-1.923,1.688-1.923s1.346,0.502,1.507,1.169l-0.773,0.227
			c-0.121-0.426-0.301-0.718-0.737-0.718c-0.564,0-0.865,0.477-0.865,1.245c0,0.784,0.312,1.276,0.873,1.276
			c0.438,0,0.654-0.276,0.784-0.784l0.769,0.17c-0.181,0.749-0.623,1.271-1.557,1.271C9.698,6.421,8.98,5.798,8.98,4.487z"/>
		<path style="fill:#FFFFFF;" d="M13.452,3.317h-1.104V2.633h3.033v0.684h-1.108v3.034h-0.82V3.317z"/>
		<path style="fill:#FFFFFF;" d="M15.866,2.633h0.813v3.718h-0.813V2.633z"/>
		<path style="fill:#FFFFFF;" d="M17.258,4.492c0-1.306,0.854-1.929,1.753-1.929c0.895,0,1.748,0.623,1.748,1.929
			s-0.854,1.929-1.748,1.929C18.112,6.421,17.258,5.798,17.258,4.492z M19.944,4.492c0-0.778-0.361-1.25-0.934-1.25
			c-0.578,0-0.934,0.472-0.934,1.25s0.355,1.271,0.934,1.271C19.583,5.763,19.944,5.271,19.944,4.492z"/>
		<path style="fill:#FFFFFF;" d="M21.303,2.633h0.819l1.558,2.372h0.01V2.633h0.753v3.718h-0.753l-1.623-2.392h-0.01v2.392h-0.754
			V2.633z"/>
		<path style="fill:#FFFFFF;" d="M24.956,5.507l0.618-0.367c0.206,0.407,0.579,0.633,1.005,0.633c0.376,0,0.648-0.141,0.648-0.427
			c0-0.281-0.268-0.401-0.754-0.537c-0.663-0.187-1.355-0.356-1.355-1.136c0-0.693,0.542-1.109,1.34-1.109
			c0.765,0,1.217,0.367,1.478,0.763l-0.568,0.433c-0.196-0.316-0.552-0.528-0.913-0.528c-0.346,0-0.538,0.151-0.538,0.372
			c0,0.296,0.275,0.402,0.765,0.537c0.652,0.177,1.345,0.382,1.345,1.151c0,0.597-0.451,1.13-1.486,1.13
			C25.735,6.421,25.233,6.039,24.956,5.507z"/>
	</g>
</g>
<g id="Layer_1">
</g>
</svg>
