<svg xmlns="http://www.w3.org/2000/svg" xmlns:xlink="http://www.w3.org/1999/xlink" width="33.809" height="25" viewBox="227 310.377 26.537 19.623" enable-background="new 227 310.377 26.537 19.623"><defs><path id="a" d="M227 310.377h33.81v25H227z"/></defs><clipPath id="b"><use xlink:href="#a" overflow="visible"/></clipPath><path clip-path="url(#b)" d="M252.34 310.386l.887 1.11c-3.595-.09-8.653 2.13-9.72 5.856 1.065-.532 2.087-.844 3.285-.844 3.77 0 6.745 3.107 6.745 6.834 0 3.817-3.062 6.657-6.834 6.657-3.02 0-5.19-1.91-6.257-4.57h-.09c-.753 2.616-3.416 4.525-6.166 4.57-4.483 0-7.19-3.64-7.19-7.898 0-6.7 5.992-11.98 12.56-11.717l.886 1.11c-3.816-.09-8.475 1.996-9.718 5.856.976-.486 2.042-.843 3.15-.843 2.575 0 4.748 1.332 6.036 3.552 1.42-5.726 6.08-9.676 12.025-9.676h.398v.002z"/></svg>