<?xml version="1.0" encoding="utf-8"?>
<!-- Generator: Adobe Illustrator 16.0.4, SVG Export Plug-In . SVG Version: 6.00 Build 0)  -->
<!DOCTYPE svg PUBLIC "-//W3C//DTD SVG 1.1//EN" "http://www.w3.org/Graphics/SVG/1.1/DTD/svg11.dtd">
<svg version="1.1" id="Layer_1" xmlns="http://www.w3.org/2000/svg" xmlns:xlink="http://www.w3.org/1999/xlink" x="0px" y="0px"
	 width="412px" height="412px" viewBox="0 0 412 412" enable-background="new 0 0 412 412" xml:space="preserve">
<g id="Layer_2">
	<path id="thumb-14-icon" d="M206,40c44.34,0,86.025,17.267,117.38,48.62C354.732,119.974,372,161.66,372,206
		s-17.268,86.025-48.62,117.38C292.025,354.732,250.34,372,206,372s-86.026-17.268-117.38-48.62C57.268,292.025,40,250.34,40,206
		s17.268-86.026,48.62-117.38C119.974,57.267,161.66,40,206,40 M206,0C92.229,0,0,92.229,0,206c0,113.771,92.229,206,206,206
		c113.771,0,206-92.229,206-206C412,92.229,319.771,0,206,0z M236.971,306.615c-31.997-3.604-49.131-29.771-120.64-29.771
		c0-24.657,0-88.529,0-88.529c61.968,0,87.92-41.799,97.799-73.42c3.767-12.057,7.587-29.629,22.033-25.476
		c16.728,4.809,14.336,48.331,4.021,77.098c11.711,8.472,30.221,17.382,61.485,13.479c-0.715,10.546-1.897,19.27-9.724,21.487
		l-9.646,2.556c-3.393,1.025-5.304,4.604-4.275,7.993c1.024,3.392,4.605,5.306,7.994,4.277l10.047-3.014
		c-2.051,13.467-3.041,20.893-12.146,23.651l-7.234,2.301c-3.391,1.022-5.303,4.604-4.281,7.99c1.027,3.39,4.609,5.311,8,4.28
		l9.352-3.18c-1.617,12.154-2.783,20.346-11.598,23.012l-7.045,2.549c-3.395,1.022-5.305,4.604-4.279,7.994
		c1.027,3.39,4.605,5.305,7.992,4.274l7.566-2.672C279.633,302.877,260.91,309.312,236.971,306.615z"/>
</g>
</svg>
