<?xml version="1.0" encoding="utf-8"?>
<!-- Generator: Adobe Illustrator 16.0.4, SVG Export Plug-In . SVG Version: 6.00 Build 0)  -->
<!DOCTYPE svg PUBLIC "-//W3C//DTD SVG 1.1//EN" "http://www.w3.org/Graphics/SVG/1.1/DTD/svg11.dtd">
<svg version="1.1" id="Layer_1" xmlns="http://www.w3.org/2000/svg" xmlns:xlink="http://www.w3.org/1999/xlink" x="0px" y="0px"
	 width="412px" height="412px" viewBox="0 0 412 412" enable-background="new 0 0 412 412" xml:space="preserve">
<g id="Layer_3">
	<path id="thumb-13-icon" d="M206,0C92.229,0,0,92.229,0,206c0,113.771,92.229,206,206,206c113.771,0,206-92.229,206-206
		C412,92.229,319.771,0,206,0z M301.162,200.874l-10.717,2.84c-3.771,1.14-5.894,5.116-4.752,8.88
		c1.141,3.771,5.117,5.896,8.881,4.756l11.164-3.348c-2.277,14.963-3.377,23.214-13.494,26.277l-8.041,2.558
		c-3.766,1.138-5.891,5.116-4.756,8.878c1.143,3.768,5.121,5.9,8.888,4.758l10.392-3.533c-1.797,13.508-3.095,22.605-12.886,25.568
		l-7.827,2.831c-3.771,1.138-5.895,5.115-4.757,8.884c1.142,3.764,5.119,5.895,8.882,4.75l8.406-2.97
		c-3.062,21.526-23.865,28.679-50.466,25.683c-35.552-4.006-54.589-33.078-134.044-33.078c0-27.396,0-98.364,0-98.364
		c68.853,0,97.688-46.443,108.664-81.578c4.188-13.396,8.431-32.92,24.482-28.306c18.586,5.343,15.928,53.702,4.467,85.664
		c13.013,9.413,33.578,19.313,68.315,14.978C311.172,188.716,309.855,198.409,301.162,200.874z"/>
</g>
</svg>
