<?xml version="1.0" encoding="utf-8"?>
<!-- Generator: Adobe Illustrator 16.0.4, SVG Export Plug-In . SVG Version: 6.00 Build 0)  -->
<!DOCTYPE svg PUBLIC "-//W3C//DTD SVG 1.1//EN" "http://www.w3.org/Graphics/SVG/1.1/DTD/svg11.dtd">
<svg version="1.1" id="Layer_1" xmlns="http://www.w3.org/2000/svg" xmlns:xlink="http://www.w3.org/1999/xlink" x="0px" y="0px"
	 width="841.89px" height="595.28px" viewBox="0 0 841.89 595.28" enable-background="new 0 0 841.89 595.28" xml:space="preserve">
<path fill-rule="evenodd" clip-rule="evenodd" d="M423.521,274.125c-0.417,0.062-0.795,0.324-0.491,0.949
	c-0.952,0.204-1.931,1.48-1.931,0.663c-0.861,0.532,0.145,0.606,0.488,0.702c-1.325,0.526-2.035,1.861-3.087,2.894l0.505,0.994
	c-1.133,1.045-0.608,2.684-1.232,3.204c0.749,1.192,1.397,0.051,2.074-0.352c0.206,0.391,0.487,1.919,0.819,2.208
	c-0.603-0.56-0.501,0.6-0.577,0.643c0.371,0.007,0.562-0.21,0.572-0.652c0.758,1.5,2.096-6.177,3.099-6.994
	c2.274,0.302-0.617,1.369-0.276,2.436c0.858,2.759,1.266,0.476,3.318,1.603c-0.552,0.366-2.98,1.007-2.244,0.98
	c-0.297,0.029-0.42,0.187-0.37,0.471c0.22-0.079,0.376-0.208,0.39-0.459c0.165,0.271,0.992,0.765,0.217,1.158
	c0.037,0.04-4.467,3.854-5.449,1.697c-0.113-0.595-0.145-0.804-0.161-1.078c-0.258-0.334-0.563-0.097-0.949-0.097
	c-0.333,2.241-2.387,3.872-4.124,4.577c1.355,4.21-0.871,0.704-1.418,2.646c-0.834,3.021-0.63,3.262,2.138,3.612
	c1.591,0.2,1.335-3.669,3.551-3.298c2.08-1.493,3.216,1.365,3.345,1.687c0.196,0.491-1.545,1.159-0.708,1.673
	c0.85,0.524,2.112-1.118,2.124-1.029c-0.147-1.139-2.296-1.863-2.296-3.579c1.716-0.65,4.159,6.29,5.001,4.158
	c-0.059,0,0.227-0.566,0.192-0.515c0.118-0.523-1.071-0.516-0.784-1.009c1.514,1.059,2.805,1.623,5.654,1.933
	c0,7.393-12.761-1.533-15.478,0.699c-2.658,2.194-6.929-0.139-6.72,6.796c0.074,3.104-0.185,8.255,7.157,6.965
	c8.357-1.47,3.752,17.046,8.91,18.027c3.439,0.638,6.295-4.351,6.102-6.806c1.998-1.656,3.95-3.654,1.992-6.217
	c0.891-2.891,5.949-4.395,5.373-7.871c-4.615,0-6.018-2.453-7.965-7.319c0.277,0.086,0.421-0.003,0.426-0.272
	c2.387,2.191,3.004,7.738,6.208,6.64c1.982-0.718,7.225-4.167,3.104-5.711c-1.264,1.556-1.172,1.036-2.164,0.03
	c-0.076,0.154-0.135,0.273-0.221,0.449c-0.375-0.67-1.338-1.578-1.09-2.29c2.457,0,6.746,3.621,9.615,3.403
	c-0.064,0.262-0.297,0.164-0.479,0.247c0.743,0.706,0.839,0.92,1.629,0.271c0.242,0.936,4.009,8.188,3.563,4.986
	c-0.395-2.864,2.023-2.625,2.754-4.928c5.024-2.654,4.811,10.109,8.07,9.143c-0.903-2.012-2.564-3.108-2.034-5.428
	c0.856,0.087,1.94,1.549,2.249,2.175c2.861-2.314,0.219-3.092,0.252-5.7c0.766-0.427,3.6,0.105,4.269-1.442
	c2.3-0.987,1.753-7.077,1.127-7.608c-1.437,0.438-4.098-3.854-0.859-2.206c0.536,0.278,0.233,0.908-0.027,1.284
	c3.442-0.333,0.728,0.958,2.968,2.408c0.172-0.155,1.844-8.987,2.482-9.173c0.67,0.62,1.347,1.142,2.02,1.304
	c-0.078-0.467,0.184-1.333,0.605-1.054c-0.227-0.669-0.75-1.875-0.625-2.875c0.015-0.117-1.229-2.093-1.656-1.906
	c-0.03,0.066-0.457,0.645-0.844,0.469c-0.688-0.312-0.656,0.219-1.348,0.101l-0.902-0.195c-1.821-4.301,6.27-7.457,6.25-7.469
	c0.687-1.269,0.125-1,0.25-2.25c0.031-0.308,0.937-0.113,1.172,0.052c-1.396,1.402-0.49,9.816,1.836,10.588
	c0.676-1.119,0.431-6.804-0.487-6.049c-0.567-0.419-0.685-2.452,0.234-2.578c-0.282-0.271,1.827-0.215,1.806-0.195
	c-0.222-1.232,0.447-3.161,1.825-3.161c-0.282-1.557-2.977-3.056-2.09-4.635c0.183,0.312,2.034,0.286,2.736,0.115
	c-0.302-2.016-3.124-3.324-1.965-1.778c-1.925,0-5.021-1.084-7.463-1.084c0.122,0.296,1.005,1.315,0.987,1.389
	c-0.217,1.069-1.677-1.009-1.405-0.947c-0.108-0.024-1.983,1.634-2.257,1.668c-0.472-1.113-7.768-1.879-9.484-1.372
	c0.199,0.109,0.328,0.179,0.504,0.274c-0.783,0.451-0.108,0.654,0.307,1.204c-0.189,0.503-2.223,0.732-2.621,0.513
	c-0.02,0.441,0.32,0.748,0.281,1.15c-0.446,0.084-1.082-0.303-1.271-0.637c0.01,0.048,0.017,0.098,0.023,0.146
	c-1.229-0.755-0.305-0.051-0.194-0.51c-0.669-2.371-6.561,0.334-7.225,0.179c-0.207,0.384-0.525,0.64-0.954,0.765
	c-0.262-1.045,0.609-2.373,0.265-3.448c0.091-0.003,0.169-0.007,0.296-0.014c-0.904-1.471-2.152-0.154-2.691-0.181
	c-0.299-0.016-0.988-1.605-1.826-1.378c-0.678,0.594,0.064,1.562-0.459,2.184c0.093,0.069,0.169,0.125,0.229,0.17
	c-0.274,0.187-0.553,0.366-0.838,0.534c0.018-0.139,0.033-0.27,0.055-0.431c-0.344,0.105-1.242,0.467-0.843,0.833
	c-1.341,0.914-1.112,3.224-0.731,2.927c0.125,1-1.375,0.024-1.955,0.459c0.145,0.468,2.709,2.25,1.852,2.661
	c-0.354-0.3-1-2.101-2.309-1.581c-0.162,0.066-0.201,0.208-0.188,0.423c0.126-0.077,0.606-0.024,0.521,0.302
	c-0.115,0.44-0.572-0.406-0.705,0.138c0.137,0.416,0.514,0.468,0.949,0.573c-1.493,0.312-0.746-0.661-1.582-1.311
	c-0.768,1.876,1.052,2.794,1.832,3.275c-0.311,0.393,0.016,0.664,0.064,0.664c-0.576,0.348-0.074,3.03-1.572,1.899
	c0.705-1.174-1.268-5.675-2.697-5.691c0.049,0.566-0.129,1.351-0.043,2.208c0.085,0.843-1.404,0.519-2.158,0.571
	c-0.463,0.525,1.753,0.851,0.803,1.847c-0.477,0.499-4.035,1.628-4.523,1.617c-0.611-0.658,0.609-1.327-1.006-1.256
	c0.15,0.273,0.513,1.617,0.437,1.851c-2.581-0.435,0.245,2.168-2.39,0.981c-0.12,0.299,0.629,1.095,0.311,1.039
	c-0.777-0.143-1.318-2.176-2.059-2.289c4.754,0.723-0.926-3.229-1.447-2.412c-0.674-0.47-0.111-0.907-0.653-0.866L423.521,274.125z
	 M424.7,274.47 M425.268,274.442 M413.634,285.274c0.954,1.746,0.809,0.7,0.265,2.544c0.265,0.082,0.52,0.186,0.766,0.313
	c-0.45,0.081-0.771,0.346-0.965,0.792c4.167-1.394,1.771-1.168,1.341-4.652c-0.233-0.024-0.457-0.046-0.676-0.069
	c0.019-0.217,0.301-0.264,0.226-0.525c-1.515,0.192-0.735,0.917-1.104,1.717C413.581,285.436,413.63,285.396,413.634,285.274
	C413.686,285.371,413.617,285.319,413.634,285.274z M460.883,312.301c-0.506-0.404-2.51-2.365-3.178-1.916
	c1.121-0.8,3.131,8.83,4.988,3.768C462.564,313.938,461.373,312.65,460.883,312.301z M466.215,309.811
	c-6.096,0.638-0.369,8.578,1.752,2.616c-0.721-0.645-0.633-1.382,0.154-1.923c-0.412-0.158-0.691-0.42-0.896-0.763
	C466.983,309.766,466.562,310.375,466.215,309.811z M413.575,285.79c-1.062-0.241-1.787,1.006-1.662,1.935
	C412.835,288.878,413.927,286.558,413.575,285.79C413.414,285.753,413.64,285.932,413.575,285.79z M444.438,264.085 M426.32,294.258
	c-0.008-0.015-0.014-0.031-0.021-0.046c-0.002,0.029-0.006,0.06-0.008,0.088C426.301,294.287,426.311,294.271,426.32,294.258
	C426.312,294.243,426.311,294.271,426.32,294.258z M469.47,281.555c-0.026,0.034-0.021,0.061,0.019,0.08
	c0.007-0.027,0.016-0.053,0.023-0.08C469.498,281.555,469.484,281.555,469.47,281.555
	C469.464,281.57,469.484,281.555,469.47,281.555z"/>
<path fill-rule="evenodd" clip-rule="evenodd" d="M392.166,269.461c0.045,0.365-0.113,0.607-0.477,0.728
	c-0.155-0.504,0.335-1.397-0.105-1.819c-0.098,0.347-0.313,0.578-0.645,0.691c1.184-1.476,0.362-3.265,2.445-5.315
	c-0.098,0.096-2.417,0.964-3.362,2.281c-1.267,1.762,0.979,2.299-1.23,3.798c-0.432-0.649,0.723-0.945-0.284-1.278
	c-0.425-0.068-2.253,0.013-2.071-0.485c0.034,0.378-0.875,0.188-1.688-0.125c-0.312,0.438-0.64,1.282-0.69,1.266
	c0.676-1.604-1.541-0.966-2.057-1.45c0.41-1.736-1.789-1.617-2.113-2.996c-0.188,0.236-0.417,0.412-0.688,0.525
	c-0.165-0.495,0.197-0.971-0.083-1.5c-0.014,0.542-0.346,0.758-0.994,0.643c0.074-0.07,0.156-0.149,0.288-0.274
	c-0.71-0.115-2.655,0.011-3.039,0.68c-1.041-1.019-4.633-3.206-4.842-4.521c-3.193,1.358-4.713-0.051-5.609,4.405
	c0.036-0.167-3.951-1.042-2.632,0.521c-1.84,0.77,1.81,1.059,1.724,1.036c0.11-0.103-1.433,2.015-1.317,1.039
	c-0.243,1.393-3.778,1.161-1.716,3.372c-0.092,0.443-0.199,0.887-0.349,1.314c0.589-0.179,0.622-0.137,0.919,0.373
	c0.108-0.164,0.619-0.294,0.789-0.106l4.385-1.14c0.374,0.927,2.283,1.201,2.702,1.929l2.228,5.704
	c-0.706,0.741,0.284,1.584,0.242,2.398c-0.265-0.134-0.528-0.27-0.791-0.407c-0.047,2.282,0.996,6.332,0.084,8.905
	c-0.642,1.694,2.781,3.7,2.293,5.643c0.108,0.27,1.975,2.398,1.926,2.427c0.442-0.251-1.792-3.897-1.509-4.524
	c2.889,1.324,2.206,6.054,5.533,7.587c1.718,0.785,8.059,4.441,8.861,3.422c2.065,2.175-1.911,4.561-0.343,5.564
	c-2.563,1.852,4.846,6.535,4.534,8.619c-0.112,0.754-0.825,10.793-0.172,10.951c0.149-0.281-0.014-0.852,0.395-0.955
	c0.047,0.154,0.185,2.107-0.089,2.469c-0.357-0.289-1.03,0.233,0.044,0.57c-0.164,0.605-0.4,3.088,0.479,2.207
	c0.353,0.922-0.008,0.961,0.818,1.66c-0.194-0.032-0.389-0.066-0.585-0.1c0.357,0.154,0.465,0.649,0.948,0.684
	c0.034-0.098,0.066-0.197,0.099-0.294c0.058,0.276,0.223,0.396,0.493,0.36c-0.218,0.323,0.895,0.652,1.215,0.684
	c-0.136-0.688,0.763-0.057,1.071-0.635c-0.2-0.076-2.033-1.123-1.874-1.436c0.075-0.086,0.228,0.078,0.27-0.099
	c-1.234-1.613,0.936-4.163,0.501-5.757c0.96,0.619-0.271-0.752-0.306-0.92c0.932,0,4.382-1.977,2.417-3.48
	c2.315,0.502,6.44-6.268,7.535-7.936c3.28-5.104,0.262-6.426-4.104-7.527c0.06-1.006-1.003-0.096-1.227-0.197
	c-0.995-2.23-1.953-3.07-4.636-4.8c0.883,0.056-0.137-0.318-0.158-0.364c-1.251,0-2.54,0.633-3.218-0.631
	c-3.316,2.335-4.585-0.348-8.171-1.711c0.261-0.175,1.129-2.619,0.919-2.637c-1.537-0.131-6.887,3.413-4.085-2.978
	c1.64-3.762,7.533,1.086,7.09,1.248c0.521-0.91,2.626-5.673,2.582-6.569c0.299-0.039,0.094,0.265,0.268,0.338
	c0.547-0.849,0.944-1.235,1.624-1.847c-0.088-0.033-0.17-0.064-0.252-0.095c1.565,0.187,1.872-2.753,3.713-2.222
	c-2.426,1.414,3.124-0.069,1.989-0.834c-0.225-0.149-0.53,0.537-0.419,0.709c-0.523-0.325-1.361-1.36-1.476-1.388
	c0.173-0.156,0.462-0.143,0.526-0.417c-0.401-1.042-1.803,0.487-2.159,0.143c2.031-1.746,6.179-0.38,5.56-3.339
	c-0.118-0.552-1.498-2.576-1.873-4.658c-0.327,0.68-0.831,1.201-1.509,1.568c0.951,0.634-4.248-5.431-3.213-2.938
	c0.556,1.305-1.417,5.959-2.36,7.09c-1.264-0.438-1.302-4.811-4.312-4.15c1.498-2.5,0.74-3.451,3.783-5.848
	c-0.33,1.364,0.42,0.502,0.47,1.545c0.295-0.065,1.888-0.698,1.971-0.511c-0.629-0.218-1.234-1.741-1.399-2.317
	c2.579,0.005,2.701,0.409,2.208-1.342c1.177-0.586,0.975-0.255,1.704-1.866c0.64,0.525,0.341,1.197,0.496,1.729
	c1.126,0,0.063,0.087,0.302,0.386c1.936-0.284-1.664,3.642-2.075,3.263c0.3,0.277,3.124,2.232,3.753,2.319
	c-0.063-0.57-0.587-0.882-0.642-1.453c0.444,0.351,0.846,0.746,1.2,1.188c-0.08-0.47-0.214-3.231,0.077-3.207
	c0.235,0.486,0.534,0.93,0.894,1.332c0.474-1.538-0.599-3.171-0.004-3.694c-0.001,0.018-0.152-0.976-0.24-1.01
	c-0.068,0.064-0.133,0.122-0.262,0.244c0.273-1.521-1.665-1.6-1.79-3.132c0.661-0.134-0.191-1.912-1.182-0.809
	c0.064-0.066-1.8,0.019-2.185,1.646c-0.308-1.222,0.282-1.687,1.213-2.407c-1.992-1.579-2.278,1.991-2.123,2.622
	c-0.267,0.212-0.388-0.259-0.671-0.114c-0.407,0.815,0.987,1.038,1.361,1.429L392.166,269.461z"/>
<path fill-rule="evenodd" clip-rule="evenodd" d="M396.66,285.609c0.167,0.246,0.167,0.246,0.539,0.354
	C397.378,285.635,397.197,285.517,396.66,285.609C396.826,285.855,396.877,285.658,396.66,285.609z"/>
<path fill-rule="evenodd" clip-rule="evenodd" d="M394.963,303.396c-0.049-0.038-0.084-0.034-0.101,0.01
	C394.914,303.445,394.948,303.443,394.963,303.396C394.938,303.389,394.958,303.406,394.963,303.396z"/>
<path fill-rule="evenodd" clip-rule="evenodd" d="M392.669,333.481c0.129-0.062,0.075-0.095-0.034-0.044
	C392.647,333.452,392.657,333.467,392.669,333.481C392.697,333.469,392.657,333.467,392.669,333.481z"/>
<path fill-rule="evenodd" clip-rule="evenodd" d="M392.266,329.997c0.033-0.013,0.041-0.034,0.027-0.067
	C392.241,329.941,392.232,329.965,392.266,329.997C392.276,329.988,392.258,329.984,392.266,329.997z"/>
<path fill-rule="evenodd" clip-rule="evenodd" d="M389.09,296.145c0.028-0.013,0.058-0.026,0.088-0.039
	c-0.026-0.049-0.067-0.057-0.123-0.021C389.067,296.104,389.078,296.125,389.09,296.145
	C389.118,296.132,389.078,296.125,389.09,296.145z"/>
<path fill-rule="evenodd" clip-rule="evenodd" d="M468.627,315.878c-0.213,0.901-2.575,2.924-3.076,2.614
	c-1.715-1.062-4.328,2.449-4.666,3.576c-1.953,6.503,5.043,1.968,7.623,4.62c0.299-0.342,0.629-0.652,0.987-0.931
	c-0.088,0.436-0.306,0.831-0.628,1.133c0.326,0.105,0.52-0.019,0.582-0.373c0.446,1.803,0.506,1.995,2.113,2.152
	c-0.748,2.921,6.136-7.003,4.492-6.607c-0.927,0.203-3.355-6.258-3.533-6.168c-1.385,3.52-3.404,1.916-2.369-0.207L468.627,315.878z
	"/>
<path fill-rule="evenodd" clip-rule="evenodd" d="M477.622,315.25c-0.675,0.07-7.074-5.85-8.222-3.793
	c0.65,0.217,0.514,0.464,1.294,0.464c-0.455,0.399-0.917,0.132-0.294,0.866c1.359-1.453,2.035,1.501,2.049,1.877
	c2.256-0.277,2.811,0.434,4.892,0.883"/>
<path fill-rule="evenodd" clip-rule="evenodd" d="M471.738,311.666C471.783,311.613,471.764,311.637,471.738,311.666
	L471.738,311.666z"/>
</svg>
