<?xml version="1.0" encoding="utf-8"?>
<!-- Generator: Adobe Illustrator 16.0.4, SVG Export Plug-In . SVG Version: 6.00 Build 0)  -->
<!DOCTYPE svg PUBLIC "-//W3C//DTD SVG 1.1//EN" "http://www.w3.org/Graphics/SVG/1.1/DTD/svg11.dtd">
<svg version="1.1" id="Layer_1" xmlns="http://www.w3.org/2000/svg" xmlns:xlink="http://www.w3.org/1999/xlink" x="0px" y="0px"
	 width="50px" height="50px" viewBox="0 0 50 50" enable-background="new 0 0 50 50" xml:space="preserve">
<g>
	<path d="M26.185,17.084c-0.156,0.023-0.297,0.122-0.186,0.355c-0.355,0.076-0.723,0.556-0.723,0.248
		c-0.322,0.201,0.053,0.229,0.182,0.265c-0.495,0.196-0.762,0.696-1.157,1.085l0.188,0.373c-0.424,0.392-0.228,1.006-0.461,1.201
		c0.281,0.447,0.524,0.02,0.777-0.133c0.078,0.146,0.182,0.721,0.307,0.828c-0.226-0.209-0.188,0.225-0.215,0.241
		c0.139,0.003,0.209-0.079,0.213-0.243c0.285,0.562,0.787-2.316,1.162-2.623c0.854,0.113-0.232,0.514-0.104,0.914
		c0.322,1.034,0.477,0.178,1.244,0.6c-0.207,0.138-1.117,0.377-0.842,0.367c-0.111,0.012-0.156,0.07-0.139,0.176
		c0.082-0.028,0.141-0.077,0.146-0.172c0.062,0.103,0.369,0.287,0.08,0.435c0.014,0.015-1.674,1.444-2.041,0.636
		c-0.043-0.223-0.057-0.301-0.062-0.404c-0.097-0.125-0.211-0.037-0.356-0.037c-0.125,0.841-0.895,1.453-1.545,1.717
		c0.508,1.576-0.328,0.264-0.531,0.99c-0.312,1.134-0.236,1.224,0.801,1.354c0.596,0.076,0.5-1.375,1.331-1.235
		c0.778-0.561,1.206,0.512,1.253,0.631c0.074,0.186-0.579,0.435-0.266,0.627c0.318,0.197,0.791-0.418,0.797-0.385
		c-0.057-0.428-0.86-0.699-0.86-1.342c0.644-0.244,1.56,2.355,1.874,1.557c-0.021,0,0.086-0.211,0.072-0.192
		c0.043-0.194-0.4-0.192-0.295-0.378c0.568,0.398,1.051,0.609,2.121,0.725c0,2.771-4.784-0.574-5.803,0.262
		c-0.996,0.824-2.598-0.051-2.52,2.549c0.027,1.162-0.069,3.094,2.684,2.609c3.133-0.551,1.405,6.389,3.338,6.758
		c1.291,0.238,2.361-1.631,2.289-2.553c0.748-0.621,1.48-1.369,0.746-2.33c0.334-1.082,2.23-1.646,2.014-2.949
		c-1.729,0-2.256-0.92-2.986-2.744c0.105,0.033,0.158,0,0.16-0.102c0.896,0.82,1.127,2.898,2.328,2.49
		c0.742-0.271,2.709-1.562,1.162-2.143c-0.473,0.582-0.438,0.389-0.809,0.01c-0.029,0.059-0.053,0.105-0.084,0.17
		c-0.141-0.252-0.502-0.592-0.408-0.859c0.92,0,2.527,1.357,3.604,1.277c-0.023,0.098-0.113,0.061-0.182,0.092
		c0.279,0.264,0.314,0.346,0.611,0.102c0.092,0.352,1.502,3.068,1.336,1.869c-0.148-1.074,0.758-0.984,1.031-1.848
		c1.883-0.994,1.805,3.789,3.023,3.428c-0.338-0.754-0.959-1.164-0.762-2.033c0.32,0.031,0.729,0.578,0.844,0.814
		c1.072-0.867,0.082-1.16,0.094-2.139c0.289-0.158,1.352,0.039,1.602-0.539c0.861-0.371,0.656-2.652,0.424-2.854
		c-0.541,0.164-1.537-1.443-0.322-0.826c0.199,0.104,0.086,0.341-0.01,0.481c1.289-0.125,0.27,0.358,1.111,0.902
		c0.064-0.06,0.691-3.369,0.93-3.438c0.252,0.232,0.506,0.428,0.758,0.489c-0.029-0.175,0.07-0.5,0.227-0.396
		c-0.084-0.25-0.279-0.703-0.232-1.078c0.006-0.043-0.461-0.783-0.621-0.713c-0.012,0.023-0.172,0.24-0.318,0.176
		c-0.258-0.117-0.244,0.082-0.504,0.037l-0.338-0.072c-0.682-1.611,2.352-2.795,2.342-2.799c0.258-0.477,0.047-0.375,0.096-0.844
		c0.012-0.115,0.352-0.043,0.439,0.02c-0.523,0.525-0.184,3.68,0.688,3.969c0.254-0.419,0.16-2.55-0.184-2.268
		c-0.213-0.157-0.258-0.919,0.088-0.967c-0.105-0.101,0.686-0.08,0.678-0.072c-0.084-0.462,0.168-1.186,0.684-1.186
		c-0.105-0.584-1.117-1.146-0.783-1.738c0.068,0.117,0.764,0.107,1.025,0.044c-0.113-0.755-1.172-1.246-0.736-0.667
		c-0.723,0-1.883-0.406-2.797-0.406c0.045,0.109,0.377,0.493,0.369,0.52c-0.08,0.401-0.629-0.377-0.525-0.354
		c-0.041-0.009-0.744,0.611-0.848,0.625c-0.176-0.417-2.912-0.704-3.555-0.516c0.074,0.043,0.123,0.067,0.189,0.104
		c-0.295,0.168-0.041,0.245,0.113,0.451c-0.07,0.188-0.832,0.274-0.982,0.192c-0.008,0.164,0.121,0.279,0.105,0.431
		c-0.168,0.032-0.404-0.113-0.477-0.239c0.004,0.018,0.008,0.037,0.01,0.055c-0.461-0.283-0.115-0.02-0.072-0.19
		c-0.252-0.89-2.461,0.125-2.709,0.067c-0.078,0.144-0.197,0.239-0.357,0.287c-0.1-0.393,0.229-0.89,0.1-1.293
		c0.033,0,0.062-0.002,0.109-0.005c-0.338-0.551-0.805-0.058-1.008-0.067c-0.111-0.006-0.369-0.603-0.684-0.518
		c-0.256,0.223,0.021,0.585-0.174,0.818c0.035,0.025,0.064,0.047,0.088,0.064c-0.104,0.069-0.207,0.137-0.314,0.199
		c0.006-0.052,0.012-0.102,0.021-0.162c-0.129,0.04-0.467,0.176-0.316,0.312c-0.502,0.342-0.418,1.207-0.273,1.097
		c0.047,0.375-0.516,0.009-0.732,0.172c0.055,0.175,1.016,0.843,0.695,0.998c-0.135-0.112-0.377-0.788-0.867-0.593
		c-0.061,0.025-0.074,0.078-0.07,0.158c0.047-0.028,0.229-0.008,0.195,0.113c-0.043,0.166-0.215-0.151-0.264,0.053
		c0.051,0.156,0.191,0.176,0.355,0.215c-0.561,0.117-0.281-0.248-0.594-0.491c-0.287,0.703,0.395,1.047,0.688,1.228
		c-0.117,0.147,0.006,0.25,0.023,0.25c-0.217,0.131-0.029,1.135-0.59,0.711c0.264-0.439-0.477-2.127-1.012-2.133
		c0.02,0.213-0.049,0.506-0.016,0.828c0.031,0.315-0.525,0.194-0.811,0.213c-0.174,0.197,0.658,0.319,0.303,0.692
		c-0.18,0.187-1.514,0.61-1.695,0.606c-0.229-0.248,0.229-0.498-0.379-0.472c0.057,0.103,0.193,0.606,0.166,0.694
		c-0.969-0.163,0.092,0.812-0.896,0.367c-0.045,0.113,0.236,0.41,0.117,0.391c-0.293-0.054-0.496-0.814-0.771-0.857
		c1.781,0.271-0.348-1.211-0.543-0.904c-0.252-0.176-0.043-0.34-0.244-0.325L26.185,17.084z M22.478,21.264
		c0.357,0.654,0.303,0.262,0.1,0.953c0.099,0.031,0.195,0.07,0.287,0.117c-0.168,0.031-0.289,0.13-0.361,0.297
		c1.562-0.521,0.664-0.438,0.502-1.742c-0.087-0.01-0.171-0.019-0.253-0.027c0.008-0.082,0.112-0.098,0.085-0.196
		c-0.568,0.071-0.275,0.344-0.414,0.644C22.458,21.322,22.476,21.309,22.478,21.264C22.498,21.3,22.472,21.279,22.478,21.264z
		 M40.188,31.393c-0.189-0.15-0.941-0.885-1.191-0.717c0.42-0.299,1.174,3.311,1.871,1.412
		C40.819,32.008,40.372,31.523,40.188,31.393z M42.187,30.461c-2.285,0.238-0.139,3.215,0.656,0.98
		c-0.271-0.244-0.236-0.52,0.059-0.721c-0.154-0.061-0.26-0.158-0.336-0.287C42.476,30.443,42.317,30.672,42.187,30.461z
		 M22.456,21.456c-0.398-0.09-0.67,0.377-0.623,0.726C22.179,22.613,22.588,21.744,22.456,21.456
		C22.396,21.443,22.481,21.51,22.456,21.456z M27.233,24.63c-0.004-0.005-0.006-0.011-0.008-0.017c0,0.011-0.002,0.023-0.002,0.033
		C27.226,24.643,27.229,24.635,27.233,24.63C27.229,24.625,27.229,24.635,27.233,24.63z M43.407,19.869
		c-0.01,0.013-0.008,0.023,0.008,0.029c0.002-0.01,0.006-0.02,0.008-0.029C43.417,19.869,43.413,19.869,43.407,19.869
		C43.405,19.874,43.413,19.869,43.407,19.869z"/>
	<path d="M14.431,15.336c0.018,0.137-0.042,0.229-0.179,0.273c-0.058-0.189,0.125-0.523-0.04-0.682
		c-0.037,0.129-0.117,0.215-0.242,0.258c0.443-0.553,0.135-1.224,0.917-1.992c-0.037,0.037-0.905,0.361-1.26,0.854
		c-0.476,0.661,0.366,0.862-0.461,1.425c-0.162-0.244,0.271-0.354-0.107-0.479c-0.159-0.024-0.844,0.005-0.774-0.183
		c0.012,0.143-0.328,0.07-0.633-0.047c-0.117,0.164-0.24,0.481-0.258,0.475c0.252-0.6-0.578-0.361-0.771-0.543
		c0.152-0.65-0.672-0.605-0.793-1.122c-0.07,0.089-0.155,0.155-0.258,0.196c-0.062-0.186,0.074-0.363-0.03-0.562
		c-0.005,0.203-0.13,0.284-0.372,0.242c0.027-0.027,0.059-0.057,0.107-0.104C9.01,13.303,8.28,13.35,8.137,13.6
		c-0.39-0.381-1.735-1.201-1.815-1.695c-1.196,0.51-1.766-0.018-2.103,1.652c0.015-0.063-1.479-0.392-0.985,0.194
		c-0.689,0.289,0.678,0.397,0.646,0.39c0.041-0.039-0.537,0.754-0.494,0.39c-0.091,0.522-1.417,0.435-0.644,1.264
		c-0.034,0.167-0.074,0.333-0.131,0.493c0.222-0.068,0.233-0.053,0.346,0.139c0.039-0.062,0.232-0.109,0.295-0.039l1.645-0.428
		c0.139,0.348,0.854,0.45,1.012,0.723l0.834,2.139c-0.264,0.277,0.107,0.593,0.092,0.898c-0.1-0.051-0.199-0.102-0.297-0.152
		c-0.018,0.854,0.373,2.373,0.031,3.336c-0.24,0.636,1.041,1.389,0.859,2.117c0.041,0.102,0.74,0.898,0.723,0.908
		c0.166-0.094-0.672-1.459-0.565-1.695c1.083,0.496,0.827,2.27,2.073,2.844c0.645,0.295,3.021,1.664,3.322,1.283
		c0.773,0.814-0.717,1.711-0.129,2.086c-0.959,0.693,1.816,2.449,1.7,3.23c-0.042,0.283-0.31,4.045-0.063,4.104
		c0.056-0.104-0.006-0.318,0.147-0.357c0.019,0.059,0.069,0.789-0.032,0.926c-0.134-0.107-0.387,0.088,0.016,0.215
		c-0.061,0.227-0.149,1.156,0.181,0.826c0.132,0.346-0.003,0.361,0.306,0.623c-0.072-0.012-0.146-0.025-0.219-0.039
		c0.135,0.059,0.174,0.244,0.355,0.258c0.013-0.037,0.025-0.074,0.037-0.109c0.021,0.104,0.082,0.146,0.185,0.135
		c-0.082,0.121,0.336,0.244,0.455,0.256c-0.052-0.258,0.287-0.021,0.401-0.238c-0.074-0.027-0.762-0.42-0.701-0.537
		c0.027-0.033,0.084,0.029,0.101-0.037c-0.462-0.604,0.351-1.561,0.188-2.158c0.359,0.232-0.103-0.281-0.115-0.346
		c0.35,0,1.643-0.74,0.906-1.305c0.867,0.189,2.414-2.35,2.824-2.973c1.229-1.914,0.098-2.41-1.539-2.822
		c0.022-0.377-0.375-0.037-0.459-0.074c-0.373-0.836-0.732-1.15-1.738-1.799c0.33,0.02-0.051-0.119-0.059-0.137
		c-0.47,0-0.953,0.236-1.207-0.236c-1.242,0.875-1.719-0.131-3.062-0.641c0.098-0.066,0.423-0.982,0.344-0.99
		c-0.576-0.049-2.58,1.281-1.531-1.115c0.615-1.412,2.824,0.406,2.658,0.467c0.195-0.34,0.984-2.126,0.969-2.463
		c0.111-0.014,0.035,0.102,0.101,0.128c0.205-0.318,0.354-0.464,0.608-0.692c-0.033-0.013-0.063-0.023-0.095-0.035
		c0.587,0.069,0.702-1.033,1.392-0.834c-0.909,0.53,1.17-0.025,0.746-0.312c-0.084-0.058-0.199,0.2-0.158,0.266
		c-0.195-0.122-0.51-0.51-0.553-0.521c0.065-0.059,0.174-0.053,0.197-0.156c-0.15-0.391-0.676,0.184-0.809,0.054
		c0.761-0.655,2.316-0.143,2.084-1.252c-0.045-0.207-0.562-0.965-0.702-1.745c-0.123,0.254-0.312,0.45-0.565,0.588
		c0.356,0.237-1.593-2.037-1.205-1.102c0.209,0.488-0.531,2.232-0.885,2.656c-0.474-0.163-0.488-1.803-1.615-1.555
		c0.562-0.937,0.276-1.293,1.418-2.191c-0.125,0.511,0.156,0.188,0.176,0.578c0.109-0.023,0.707-0.26,0.738-0.191
		c-0.234-0.082-0.461-0.652-0.523-0.867c0.966,0.002,1.012,0.153,0.828-0.504c0.441-0.22,0.365-0.095,0.639-0.699
		c0.24,0.197,0.128,0.448,0.186,0.648c0.422,0,0.024,0.032,0.113,0.145c0.727-0.105-0.623,1.367-0.777,1.224
		c0.113,0.104,1.172,0.836,1.408,0.868c-0.024-0.213-0.221-0.33-0.242-0.543c0.168,0.131,0.317,0.279,0.451,0.445
		c-0.031-0.178-0.082-1.212,0.028-1.203c0.088,0.183,0.2,0.35,0.335,0.5c0.178-0.576-0.225-1.188-0.001-1.386
		c0,0.007-0.058-0.364-0.09-0.378c-0.024,0.023-0.05,0.046-0.099,0.092c0.103-0.57-0.623-0.6-0.67-1.174
		c0.248-0.051-0.071-0.717-0.443-0.304c0.023-0.024-0.676,0.008-0.819,0.616c-0.116-0.457,0.104-0.631,0.454-0.901
		c-0.746-0.592-0.854,0.746-0.795,0.981c-0.1,0.08-0.146-0.096-0.251-0.043c-0.153,0.307,0.37,0.39,0.511,0.537L14.431,15.336z"/>
	<path d="M16.114,21.389c0.063,0.092,0.063,0.092,0.203,0.133C16.385,21.398,16.317,21.354,16.114,21.389
		C16.178,21.48,16.196,21.407,16.114,21.389z"/>
	<path d="M15.479,28.057c-0.02-0.018-0.031-0.014-0.039,0.002C15.461,28.074,15.474,28.072,15.479,28.057
		C15.47,28.053,15.478,28.059,15.479,28.057z"/>
	<path d="M14.62,39.334c0.048-0.023,0.027-0.035-0.014-0.02C14.61,39.322,14.614,39.326,14.62,39.334
		C14.63,39.326,14.614,39.326,14.62,39.334z"/>
	<path d="M14.469,38.027c0.013-0.006,0.015-0.014,0.009-0.023C14.459,38.006,14.456,38.016,14.469,38.027
		C14.473,38.023,14.465,38.021,14.469,38.027z"/>
	<path d="M13.278,25.338c0.01-0.005,0.021-0.009,0.033-0.016c-0.011-0.018-0.025-0.02-0.047-0.006
		C13.269,25.322,13.272,25.331,13.278,25.338C13.288,25.333,13.272,25.331,13.278,25.338z"/>
	<path d="M43.093,32.734c-0.08,0.338-0.967,1.098-1.152,0.98c-0.645-0.398-1.623,0.918-1.75,1.34
		c-0.732,2.438,1.891,0.738,2.855,1.732c0.113-0.129,0.236-0.246,0.371-0.35c-0.033,0.162-0.115,0.311-0.234,0.424
		c0.121,0.039,0.193-0.006,0.217-0.139c0.168,0.674,0.189,0.746,0.793,0.807c-0.281,1.094,2.299-2.625,1.684-2.479
		c-0.346,0.076-1.258-2.346-1.322-2.312c-0.521,1.32-1.277,0.719-0.891-0.076L43.093,32.734z"/>
	<path d="M46.462,32.498c-0.252,0.025-2.65-2.191-3.082-1.422c0.244,0.082,0.193,0.176,0.486,0.176
		c-0.17,0.148-0.344,0.049-0.111,0.324c0.512-0.547,0.766,0.562,0.77,0.701c0.846-0.102,1.053,0.164,1.834,0.334"/>
	<path d="M44.257,31.156C44.274,31.135,44.269,31.146,44.257,31.156L44.257,31.156z"/>
</g>
</svg>
