<?xml version="1.0" encoding="UTF-8" standalone="no"?>
<svg width="15px" height="15px" viewBox="0 0 15 15" version="1.1" xmlns="http://www.w3.org/2000/svg" xmlns:xlink="http://www.w3.org/1999/xlink" xmlns:sketch="http://www.bohemiancoding.com/sketch/ns">
    <!-- Generator: Sketch 3.3.2 (12043) - http://www.bohemiancoding.com/sketch -->
    <title>group</title>
    <desc>Created with Sketch.</desc>
    <defs></defs>
    <g id="NEXT-header" stroke="none" stroke-width="1" fill="none" fill-rule="evenodd" sketch:type="MSPage">
        <g id="1440-full-colour-cards" sketch:type="MSArtboardGroup" transform="translate(-470.000000, -934.000000)" fill="#000000">
            <g id="lead-pod-1" sketch:type="MSLayerGroup" transform="translate(90.000000, 93.000000)">
                <g id="article-card-2-copy" transform="translate(360.000000, 519.000000)" sketch:type="MSShapeGroup">
                    <g id="timeline-copy-7" transform="translate(20.000000, 322.500000)">
                        <g id="group">
                            <path d="M14.3923534,6.93327057 C14.3923534,10.5573907 11.4575979,13.4953687 7.83772701,13.4953687 C4.2178561,13.4953687 1.28310058,10.5573907 1.28310058,6.93327057 C1.28310058,3.98619549 3.2409238,1.42388271 6.02877015,0.624212721 C6.16148931,0.586143359 6.23821814,0.447691903 6.20014877,0.314972739 C6.16207941,0.182253575 6.02362796,0.105524751 5.89090879,0.143594113 C2.88996783,1.00438847 0.783100584,3.76176353 0.783100584,6.93327057 C0.783100584,10.8334103 3.94159081,13.9953687 7.83772701,13.9953687 C11.7338632,13.9953687 14.8923534,10.8334103 14.8923534,6.93327057 C14.8923534,4.06922365 13.085938,1.42059329 10.5994267,0.559375168 C10.4688544,0.514150645 10.3101946,0.432230311 10.256363,0.559375162 C10.2025314,0.686520014 10.2619636,0.833230403 10.3891084,0.887061988 C12.7958263,1.90603711 14.3923534,4.27173297 14.3923534,6.93327057 Z" id="Shape"></path>
                            <path d="M10.5299988,0.719970703 L10.2799988,0.969970703 L13.9999988,0.969970703 C14.13807,0.969970703 14.2499988,0.858041891 14.2499988,0.719970703 C14.2499988,0.581899516 14.13807,0.469970703 13.9999988,0.469970703 L10.2799988,0.469970703 L10.0299988,0.469970703 L10.0299988,0.719970703 L10.0299988,4.44109999 C10.0299988,4.57917118 10.1419276,4.69109999 10.2799988,4.69109999 C10.41807,4.69109999 10.5299988,4.57917118 10.5299988,4.44109999 L10.5299988,0.719970703 Z" id="Shape"></path>
                            <path d="M11.0688012,7.54278349 L7.12078929,7.54278349 L7.37078929,7.79278349 L7.37078929,3.25523973 L6.87078929,3.25523973 L6.87078929,7.79278349 L6.87078929,8.04278349 L7.12078929,8.04278349 L11.0688012,8.04278349 L11.0688012,7.54278349 L11.0688012,7.54278349 Z" id="Shape"></path>
                        </g>
                    </g>
                </g>
            </g>
        </g>
    </g>
</svg>