<?xml version="1.0" encoding="iso-8859-1"?>
<!-- Generator: Adobe Illustrator 16.0.4, SVG Export Plug-In . SVG Version: 6.00 Build 0)  -->
<!DOCTYPE svg PUBLIC "-//W3C//DTD SVG 1.1//EN" "http://www.w3.org/Graphics/SVG/1.1/DTD/svg11.dtd">
<svg version="1.1" xmlns="http://www.w3.org/2000/svg" xmlns:xlink="http://www.w3.org/1999/xlink" x="0px" y="0px"
	 width="41.371px" height="37.561px" viewBox="0 0 41.371 37.561" style="enable-background:new 0 0 41.371 37.561;"
	 xml:space="preserve">
<g id="topics">
	<path style="fill:#1D1D1B;" d="M0.032,20.408h3.655v4.363l-0.946,8.024H1.002l-0.97-8.024V20.408z M0.114,34.188h3.491v3.373H0.114
		V34.188z"/>
	<path style="fill:#1D1D1B;" d="M20.77,1.914C22.75,0.638,25.184,0,28.071,0c3.794,0,6.945,0.906,9.455,2.719s3.765,4.5,3.765,8.058
		c0,2.183-0.543,4.021-1.632,5.515c-0.637,0.906-1.858,2.065-3.667,3.475l-1.782,1.386c-0.972,0.755-1.616,1.636-1.935,2.643
		c-0.2,0.639-0.31,1.629-0.326,2.973h-6.823c0.1-2.838,0.368-4.799,0.803-5.88c0.436-1.084,1.557-2.33,3.364-3.74l1.833-1.435
		c0.603-0.454,1.088-0.949,1.456-1.485c0.67-0.924,1.004-1.939,1.004-3.047c0-1.275-0.373-2.438-1.118-3.487
		c-0.745-1.049-2.106-1.574-4.082-1.574c-1.942,0-3.32,0.647-4.132,1.938c-0.812,1.293-1.218,2.636-1.218,4.03h-7.278
		C15.96,7.302,17.63,3.912,20.77,1.914z M24.949,30.217h7.529v7.277h-7.529V30.217z"/>
	<path style="fill:#1D1D1B;" d="M35.916,35.035c0.942-0.152,1.659-0.68,2.147-1.58s0.733-1.938,0.733-3.11
		c0-0.118-0.005-0.225-0.014-0.318c-0.008-0.094-0.029-0.199-0.063-0.319h-2.804V24.15h5.455v5.124c0,2.175-0.45,4.023-1.351,5.544
		c-0.901,1.521-2.27,2.393-4.104,2.613V35.035z"/>
	<path style="fill:#1D1D1B;" d="M11.663,2.569c-1.055,0.196-1.757,0.97-2.109,2.319C9.357,5.69,9.294,6.386,9.364,6.977h2.299v4.598
		H7.171V7.336c0-1.673,0.345-3.161,1.033-4.46c0.689-1.301,1.842-2.064,3.459-2.289V2.569z M4.577,2.569
		C3.522,2.766,2.826,3.54,2.489,4.889C2.292,5.69,2.222,6.386,2.278,6.977h2.299v4.598H0.063V7.336c0-1.673,0.345-3.168,1.033-4.482
		c0.689-1.314,1.849-2.07,3.48-2.267V2.569z"/>
	<path style="fill:#1D1D1B;" d="M16.656,20.801v6.155l6.037-2.08l1.101,3.052l-6.031,1.961l3.734,5.216l-2.738,1.965l-3.609-5.423
		l-3.667,5.424l-2.824-1.966l3.791-5.216l-6.086-1.961l1.107-3.07l5.975,2.157v-6.214H16.656z"/>
	<g>
		<path d="M1.469,14.409H0V13.5h4.036v0.909H2.559v4.037h-1.09V14.409z"/>
		<path d="M4.211,15.973c0-1.737,1.137-2.565,2.333-2.565c1.189,0,2.324,0.828,2.324,2.565c0,1.738-1.135,2.566-2.324,2.566
			C5.348,18.54,4.211,17.711,4.211,15.973z M7.788,15.973c0-1.035-0.481-1.664-1.244-1.664c-0.768,0-1.244,0.628-1.244,1.664
			c0,1.036,0.477,1.691,1.244,1.691C7.307,17.664,7.788,17.009,7.788,15.973z"/>
		<path d="M9.594,13.5h1.798c1.057,0,2.019,0.281,2.019,1.583c0,1.332-1.043,1.604-2.029,1.604h-0.703v1.758H9.594V13.5z
			 M11.419,15.846c0.674,0,0.929-0.261,0.929-0.735c0-0.461-0.245-0.722-0.929-0.722h-0.741v1.457H11.419z"/>
		<path d="M14.101,13.5h1.084v4.946h-1.084V13.5z"/>
		<path d="M15.953,15.967c0-1.718,0.994-2.559,2.244-2.559c1.252,0,1.792,0.668,2.004,1.557l-1.026,0.3
			c-0.162-0.568-0.401-0.956-0.983-0.956c-0.748,0-1.148,0.635-1.148,1.657c0,1.042,0.413,1.697,1.161,1.697
			c0.583,0,0.871-0.368,1.044-1.042l1.021,0.227c-0.24,0.997-0.829,1.691-2.072,1.691C16.908,18.54,15.953,17.711,15.953,15.967z"/>
		<path d="M20.659,17.324l0.824-0.488c0.273,0.541,0.769,0.841,1.336,0.841c0.5,0,0.861-0.187,0.861-0.567
			c0-0.375-0.354-0.535-1.002-0.715c-0.883-0.248-1.804-0.474-1.804-1.51c0-0.923,0.721-1.477,1.783-1.477
			c1.016,0,1.617,0.488,1.966,1.016l-0.756,0.575c-0.261-0.421-0.735-0.703-1.217-0.703c-0.459,0-0.715,0.201-0.715,0.495
			c0,0.395,0.368,0.535,1.017,0.715c0.869,0.234,1.79,0.508,1.79,1.53c0,0.795-0.602,1.504-1.977,1.504
			C21.696,18.54,21.028,18.032,20.659,17.324z"/>
	</g>
</g>
<g id="Layer_1">
</g>
</svg>
