<?xml version="1.0" encoding="utf-8"?>
<!-- Generator: Adobe Illustrator 16.0.4, SVG Export Plug-In . SVG Version: 6.00 Build 0)  -->
<!DOCTYPE svg PUBLIC "-//W3C//DTD SVG 1.1//EN" "http://www.w3.org/Graphics/SVG/1.1/DTD/svg11.dtd">
<svg version="1.1" id="Layer_1" xmlns="http://www.w3.org/2000/svg" xmlns:xlink="http://www.w3.org/1999/xlink" x="0px" y="0px"
	 width="50px" height="50px" viewBox="0 0 50 50" enable-background="new 0 0 50 50" xml:space="preserve">
<g>
	<path fill="#1E1E1C" d="M2.71,24.512h4.044v4.826l-1.047,8.877H3.782L2.71,29.338V24.512L2.71,24.512z M2.801,39.754h3.862v3.73
		H2.801V39.754z"/>
	<path fill="#1E1E1C" d="M25.781,7.506c1.98-1.275,4.414-1.914,7.301-1.914c3.797,0,6.945,0.906,9.455,2.719
		c2.512,1.813,3.768,4.5,3.768,8.06c0,2.183-0.543,4.021-1.633,5.515c-0.639,0.906-1.857,2.065-3.666,3.475l-1.783,1.385
		c-0.971,0.758-1.615,1.639-1.936,2.646c-0.199,0.637-0.311,1.629-0.324,2.971h-6.824c0.1-2.838,0.369-4.797,0.803-5.879
		c0.438-1.084,1.559-2.33,3.365-3.739l1.832-1.437c0.604-0.453,1.088-0.949,1.457-1.484c0.67-0.924,1.004-1.938,1.004-3.047
		c0-1.274-0.373-2.438-1.119-3.486c-0.744-1.05-2.105-1.574-4.082-1.574c-1.941,0-3.32,0.646-4.131,1.938
		c-0.812,1.293-1.219,2.638-1.219,4.031h-7.277C20.973,12.895,22.643,9.504,25.781,7.506z M29.963,35.809h7.527v7.277h-7.527V35.809
		L29.963,35.809z"/>
	<path fill="#1E1E1C" d="M41.596,41.295c0.939-0.152,1.658-0.682,2.145-1.58c0.488-0.9,0.734-1.938,0.734-3.111
		c0-0.117-0.006-0.225-0.014-0.318c-0.01-0.092-0.029-0.197-0.064-0.316h-2.803V30.41h5.455v5.123c0,2.178-0.451,4.023-1.354,5.545
		c-0.898,1.521-2.27,2.395-4.104,2.613L41.596,41.295L41.596,41.295z"/>
	<path fill="#1E1E1C" d="M18.007,8.759c-1.372,0.257-2.284,1.263-2.743,3.021c-0.258,1.043-0.34,1.949-0.248,2.719h2.991v5.984
		H12.16v-5.519c0-2.178,0.447-4.114,1.345-5.808c0.897-1.691,2.397-2.686,4.502-2.979V8.759z M8.783,8.759
		c-1.372,0.257-2.278,1.263-2.719,3.021c-0.256,1.043-0.349,1.949-0.273,2.719h2.992v5.984H2.908v-5.519
		c0-2.178,0.449-4.124,1.346-5.834S6.66,6.436,8.783,6.18V8.759L8.783,8.759z"/>
	<path fill="#1E1E1C" d="M20.078,25.459v6.51l6.385-2.199l1.164,3.227l-6.379,2.074l3.949,5.516l-2.896,2.074l-3.816-5.73
		l-3.877,5.732l-2.984-2.076l4.008-5.516l-6.436-2.074l1.172-3.248l6.316,2.283v-6.57h3.395V25.459z"/>
</g>
</svg>
