<?xml version="1.0" encoding="utf-8"?>
<!-- Generator: Adobe Illustrator 16.0.4, SVG Export Plug-In . SVG Version: 6.00 Build 0)  -->
<!DOCTYPE svg PUBLIC "-//W3C//DTD SVG 1.1//EN" "http://www.w3.org/Graphics/SVG/1.1/DTD/svg11.dtd">
<svg version="1.1" id="Layer_1" xmlns="http://www.w3.org/2000/svg" xmlns:xlink="http://www.w3.org/1999/xlink" x="0px" y="0px"
	 width="841.89px" height="595.28px" viewBox="0 0 841.89 595.28" enable-background="new 0 0 841.89 595.28" xml:space="preserve">
<g>
	<path fill="#1E1E1C" d="M398.71,297.512h4.044v4.826l-1.047,8.877h-1.925l-1.072-8.877V297.512z M398.801,312.754h3.862v3.732
		h-3.862V312.754z"/>
	<path fill="#1E1E1C" d="M421.781,280.506c1.98-1.275,4.414-1.914,7.302-1.914c3.794,0,6.945,0.906,9.455,2.719
		s3.765,4.5,3.765,8.058c0,2.183-0.543,4.021-1.632,5.515c-0.637,0.906-1.858,2.065-3.667,3.475l-1.782,1.385
		c-0.972,0.756-1.616,1.637-1.935,2.644c-0.2,0.638-0.31,1.629-0.326,2.972h-6.823c0.1-2.838,0.368-4.798,0.803-5.879
		c0.436-1.085,1.557-2.33,3.364-3.741l1.833-1.435c0.603-0.454,1.088-0.949,1.456-1.485c0.67-0.924,1.004-1.939,1.004-3.047
		c0-1.275-0.373-2.438-1.118-3.487c-0.745-1.049-2.106-1.574-4.082-1.574c-1.942,0-3.32,0.647-4.132,1.938
		c-0.812,1.293-1.218,2.636-1.218,4.03h-7.278C416.972,285.895,418.642,282.504,421.781,280.506z M425.961,308.809h7.529v7.277
		h-7.529V308.809z"/>
	<path fill="#1E1E1C" d="M437.595,314.295c0.942-0.153,1.659-0.68,2.147-1.58s0.733-1.938,0.733-3.111
		c0-0.118-0.005-0.225-0.014-0.318c-0.008-0.094-0.029-0.199-0.063-0.318h-2.804v-5.557h5.455v5.123c0,2.176-0.45,4.023-1.351,5.545
		c-0.901,1.521-2.27,2.393-4.104,2.613V314.295z"/>
	<path fill="#1E1E1C" d="M414.007,281.759c-1.372,0.256-2.286,1.263-2.745,3.02c-0.256,1.043-0.338,1.949-0.247,2.718h2.992v5.985
		h-5.847v-5.518c0-2.178,0.448-4.114,1.345-5.806c0.897-1.693,2.397-2.687,4.502-2.979V281.759z M404.783,281.759
		c-1.372,0.256-2.278,1.263-2.718,3.02c-0.256,1.043-0.348,1.949-0.274,2.718h2.992v5.985h-5.875v-5.518
		c0-2.178,0.449-4.124,1.346-5.834c0.896-1.71,2.406-2.694,4.529-2.951V281.759z"/>
	<path fill="#1E1E1C" d="M416.078,298.459v6.509l6.384-2.199l1.164,3.227l-6.378,2.074l3.949,5.514l-2.896,2.077l-3.817-5.732
		l-3.876,5.733l-2.985-2.078l4.008-5.514l-6.436-2.074l1.172-3.247l6.317,2.282v-6.572H416.078z"/>
</g>
</svg>
